<svg xmlns="http://www.w3.org/2000/svg" width="88.447" height="99.06" viewBox="0 0 88.447 99.06">
  <g id="_8956824_shopping_bag_order_commerce_business_icon" data-name="8956824_shopping_bag_order_commerce_business_icon" transform="translate(-3.5 -2)">
    <path id="Path_43714" data-name="Path 43714" d="M88.409,7.515H72.839a20.886,20.886,0,0,1,.333,3.538v8.364a3.538,3.538,0,0,1-7.076,0V11.053a14,14,0,0,0-.488-3.538H29.843a13.837,13.837,0,0,0-.488,3.538v8.363a3.538,3.538,0,1,1-7.076,0V11.053a20.885,20.885,0,0,1,.333-3.538H7.038A3.539,3.539,0,0,0,3.5,11.053V74.1A12.975,12.975,0,0,0,16.459,87.064H78.987A12.975,12.975,0,0,0,91.947,74.1V11.053A3.537,3.537,0,0,0,88.409,7.515Z" transform="translate(0 13.996)" fill="#f85e60"/>
    <path id="Path_43715" data-name="Path 43715" d="M8.811,33.413a3.538,3.538,0,0,0,7.076,0V25.049a14,14,0,0,1,.488-3.538c1.861-7.1,9.152-12.436,17.88-12.436s16.019,5.332,17.88,12.436a13.837,13.837,0,0,1,.488,3.538v8.364a3.538,3.538,0,1,0,7.076,0V25.049a20.885,20.885,0,0,0-.333-3.538C57.481,10.48,46.956,2,34.255,2S11.029,10.48,9.14,21.511a20.886,20.886,0,0,0-.333,3.538v8.364Z" transform="translate(13.468 0)" fill="#393b3d"/>
  </g>
</svg>
