<svg xmlns="http://www.w3.org/2000/svg" width="8" height="10" viewBox="0 0 8 10">
  <g id="Bookmark" transform="translate(0 -0.182)">
    <path id="Bookmark-2" data-name="Bookmark" d="M6.793,9.9,3.987,8.332,1.192,9.9A.794.794,0,0,1,.819,10a.827.827,0,0,1-.627-.3L.143,9.636.1,9.559A.887.887,0,0,1,0,9.166V2.217A2.073,2.073,0,0,1,.671.558,2.746,2.746,0,0,1,2.507,0H5.493C7.086,0,8,.776,8,2.129V9.166a.84.84,0,0,1-.238.59A.805.805,0,0,1,7.18,10,.86.86,0,0,1,6.793,9.9Zm-2.471-2.2,2.8,1.564a.151.151,0,0,0,.063.018.107.107,0,0,0,.076-.032.113.113,0,0,0,.031-.078V2.129c0-.932-.606-1.4-1.8-1.4H2.507c-1.212,0-1.8.488-1.8,1.493V9.159a.177.177,0,0,0,0,.023c0,.01,0,.013,0,.014h0l.019.03a.116.116,0,0,0,.092.048.093.093,0,0,0,.043-.01L3.654,7.694a.688.688,0,0,1,.333-.086A.7.7,0,0,1,4.322,7.695ZM2.27,3.882a.363.363,0,0,1-.048-.72l.048,0H5.7a.363.363,0,0,1,.048.721l-.048,0Z" transform="translate(0 0.182)" fill="#f85e60"/>
  </g>
</svg>
