<svg xmlns="http://www.w3.org/2000/svg" width="43.448" height="28.905" viewBox="0 0 43.448 28.905">
  <g id="_1845733_beverage_breakfast_burger_drink_drink_and_food_icon" data-name="1845733_beverage_breakfast_burger_drink_drink and food_icon" transform="translate(-6 -89.6)">
    <g id="Group_172922" data-name="Group 172922" transform="translate(16.46 102.71)">
      <g id="Group_172920" data-name="Group 172920" transform="translate(1.851 0)">
        <path id="Path_38273" data-name="Path 38273" d="M180.458,243.9c-.825-1.9-2.407-3.38-4.231-3.406h-19.14A4.886,4.886,0,0,0,152.7,243.9Z" transform="translate(-152.266 -240.498)" fill="#f85e60"/>
        <path id="Path_38274" data-name="Path 38274" d="M147.7,363.9c.469,2.771,2.407,5.056,4.726,5.074h19.14c2.407.026,4.413-2.172,4.831-5.074Z" transform="translate(-147.7 -353.179)" fill="#f85e60"/>
      </g>
      <g id="Group_172921" data-name="Group 172921" transform="translate(0 4.266)">
        <path id="Path_38275" data-name="Path 38275" d="M126.9,292.406c1.781,0,1.781-1.26,3.553-1.26s1.781,1.26,3.553,1.26,1.781-1.26,3.553-1.26,1.781,1.26,3.553,1.26,1.781-1.26,3.553-1.26,1.781,1.26,3.553,1.26,1.781-1.26,3.553-1.26,1.781,1.26,3.553,1.26,1.781-1.26,3.553-1.26c.13,0,.252.009.356.017a2.017,2.017,0,0,0-1.807-1.564H128.346a2.257,2.257,0,0,0-1.946,2.467v.3A3.025,3.025,0,0,0,126.9,292.406Z" transform="translate(-126.4 -289.6)" fill="#f85e60"/>
        <path id="Path_38276" data-name="Path 38276" d="M160.437,323.3c-1.781,0-1.781,1.26-3.553,1.26s-1.781-1.26-3.553-1.26-1.781,1.26-3.553,1.26-1.781-1.26-3.553-1.26-1.781,1.26-3.553,1.26-1.781-1.26-3.553-1.26-1.781,1.26-3.553,1.26-1.781-1.26-3.553-1.26-1.781,1.26-3.553,1.26c-.13,0-.252-.009-.356-.017a2.017,2.017,0,0,0,1.807,1.564h29.087a2.257,2.257,0,0,0,1.946-2.467v-.3A2.321,2.321,0,0,0,160.437,323.3Z" transform="translate(-127.952 -320.372)" fill="#f85e60"/>
      </g>
    </g>
    <path id="Path_38277" data-name="Path 38277" d="M16.356,110.4a.664.664,0,0,1-.556-.66v-.3a3,3,0,0,1,2.311-3.119.7.7,0,0,1,.009-.46,5.527,5.527,0,0,1,4.97-3.823h0l.652-5.6v-.07h.817V95.282H23.6v-.608H12.516l-1.129-3.692A1.937,1.937,0,0,0,9.527,89.6H6v.53H9.527a1.415,1.415,0,0,1,1.355,1l1.077,3.536H10.24v.608H9.284v1.086H10.1v.069l2.441,21.1a1.055,1.055,0,0,0,1.051.947h6.655a.982.982,0,0,0,.391-.078,7.173,7.173,0,0,1-2.989-4.891.681.681,0,0,1,.017-.3,2.834,2.834,0,0,1-1.7-1.9.659.659,0,0,1,.122-.617" transform="translate(0 0)" fill="#f85e60" fill-rule="evenodd"/>
  </g>
</svg>
