<svg xmlns="http://www.w3.org/2000/svg" width="17" height="19" viewBox="0 0 17 19">
  <g id="Calendar" transform="translate(0.143 0.083)">
    <path id="Calendar-2" data-name="Calendar" d="M4.814,19A4.841,4.841,0,0,1,1.3,17.714,4.887,4.887,0,0,1,0,14.159v-8a4.767,4.767,0,0,1,1.3-3.5A4.691,4.691,0,0,1,4.329,1.412V.663a.653.653,0,0,1,1.3-.09l.006.09V1.4h5.735V.663a.654.654,0,0,1,1.3-.09l.006.09v.749a4.662,4.662,0,0,1,3.068,1.281A4.77,4.77,0,0,1,17,6.161v8.064a4.781,4.781,0,0,1-1.294,3.507A4.881,4.881,0,0,1,12.186,19ZM1.307,14.159a3.167,3.167,0,0,0,3.506,3.516h7.373c2.26,0,3.505-1.224,3.505-3.449V7.869H1.307ZM15.692,6.543V6.159a3.442,3.442,0,0,0-.87-2.531,3.293,3.293,0,0,0-2.142-.889v.831a.654.654,0,0,1-1.3.09l-.006-.09V2.721H5.636v.851a.653.653,0,0,1-1.3.09l-.006-.09V2.741A3.066,3.066,0,0,0,1.307,6.161v.382Zm-3.973,7.549a.659.659,0,0,1,.565-.657l.1-.006a.663.663,0,0,1,.089,1.319l-.089.006A.66.66,0,0,1,11.719,14.092Zm-3.869,0a.66.66,0,0,1,.565-.657l.1-.006A.663.663,0,0,1,8.6,14.749l-.089.006A.66.66,0,0,1,7.85,14.092Zm-3.876,0a.659.659,0,0,1,.565-.657l.1-.006a.663.663,0,0,1,.089,1.319l-.1.006A.658.658,0,0,1,3.974,14.092Zm7.745-3.435A.659.659,0,0,1,12.284,10l.1-.006a.663.663,0,0,1,.089,1.319l-.089.006A.66.66,0,0,1,11.719,10.658Zm-3.869,0A.66.66,0,0,1,8.415,10l.1-.006A.663.663,0,0,1,8.6,11.314l-.089.006A.66.66,0,0,1,7.85,10.658Zm-3.876,0A.659.659,0,0,1,4.539,10l.1-.006a.663.663,0,0,1,.089,1.319l-.1.006A.658.658,0,0,1,3.974,10.658Z" transform="translate(-0.143 -0.083)" fill="#f85e60"/>
  </g>
</svg>
