<svg id="Group_172932" data-name="Group 172932" xmlns="http://www.w3.org/2000/svg" xmlns:xlink="http://www.w3.org/1999/xlink" width="15.003" height="21.553" viewBox="0 0 15.003 21.553">
  <defs>
    <clipPath id="clip-path">
      <rect id="Rectangle_5439" data-name="Rectangle 5439" width="15.003" height="21.553" fill="#f85e60"/>
    </clipPath>
  </defs>
  <g id="Group_172927" data-name="Group 172927" clip-path="url(#clip-path)">
    <path id="Path_38285" data-name="Path 38285" d="M7.489,21.553A7.5,7.5,0,0,1,0,14.064c0-.007,0-.013,0-.02a5.664,5.664,0,0,1,.224-1.405,9.238,9.238,0,0,1,2.4-4.093C4.046,7.126,7.24,3.536,6.235.857A.634.634,0,0,1,7.284.194,12.866,12.866,0,0,1,9.267,3.108a11.4,11.4,0,0,1,1.284,5.251A6.008,6.008,0,0,0,11.73,5.126a.634.634,0,0,1,1.113-.387c2.22,2.569,2.224,8.35,2.133,9.382a8.615,8.615,0,0,1-2.309,5.226,7.139,7.139,0,0,1-5.177,2.207M1.268,14.074a6.228,6.228,0,0,0,6.221,6.211c3.283,0,5.9-2.64,6.224-6.277a18.559,18.559,0,0,0-1.023-7.084,8.165,8.165,0,0,1-2.59,3.761.634.634,0,0,1-1-.637A10.05,10.05,0,0,0,7.627,2.781c-.409,2.578-2.6,5.152-4.106,6.663l0,0a7.969,7.969,0,0,0-2.074,3.535l0,.009a4.392,4.392,0,0,0-.174,1.084M3.073,9h0Z" transform="translate(0 0)" fill="#f85e60"/>
  </g>
</svg>
