<svg xmlns="http://www.w3.org/2000/svg" width="23" height="23" viewBox="0 0 23 23">
  <g id="Category" transform="translate(-0.373 0.32)">
    <path id="Category-2" data-name="Category" d="M16.084,23a3.437,3.437,0,0,1-3.422-3.445V16.032a3.437,3.437,0,0,1,3.422-3.446h3.5A3.436,3.436,0,0,1,23,16.032v3.523A3.436,3.436,0,0,1,19.579,23Zm-1.817-6.968v3.523a1.831,1.831,0,0,0,1.817,1.84h3.5a1.831,1.831,0,0,0,1.816-1.84V16.032a1.831,1.831,0,0,0-1.816-1.841h-3.5A1.832,1.832,0,0,0,14.267,16.032ZM3.422,23A3.437,3.437,0,0,1,0,19.555V16.032a3.437,3.437,0,0,1,3.422-3.446H6.916a3.437,3.437,0,0,1,3.422,3.446v3.523A3.437,3.437,0,0,1,6.916,23ZM1.6,16.032v3.523A1.831,1.831,0,0,0,3.422,21.4H6.916a1.831,1.831,0,0,0,1.817-1.84V16.032a1.832,1.832,0,0,0-1.817-1.841H3.422A1.832,1.832,0,0,0,1.6,16.032Zm14.48-5.619a3.437,3.437,0,0,1-3.422-3.445V3.445A3.437,3.437,0,0,1,16.084,0h3.5A3.436,3.436,0,0,1,23,3.445V6.969a3.436,3.436,0,0,1-3.421,3.445ZM14.267,3.445V6.969a1.831,1.831,0,0,0,1.817,1.84h3.5A1.831,1.831,0,0,0,21.4,6.969V3.445A1.831,1.831,0,0,0,19.579,1.6h-3.5A1.831,1.831,0,0,0,14.267,3.445ZM3.422,10.413A3.437,3.437,0,0,1,0,6.969V3.445A3.437,3.437,0,0,1,3.422,0H6.916a3.437,3.437,0,0,1,3.422,3.445V6.969a3.437,3.437,0,0,1-3.422,3.445ZM1.6,3.445V6.969a1.831,1.831,0,0,0,1.817,1.84H6.916a1.831,1.831,0,0,0,1.817-1.84V3.445A1.831,1.831,0,0,0,6.916,1.6H3.422A1.831,1.831,0,0,0,1.6,3.445Z" transform="translate(0.373 -0.32)" fill="#f85e60"/>
  </g>
</svg>
