<svg xmlns="http://www.w3.org/2000/svg" width="23" height="23" viewBox="0 0 23 23">
  <g id="Chat" transform="translate(-0.081 0.32)">
    <path id="Chat-2" data-name="Chat" d="M6.115,21.675l-.053-.019a.02.02,0,0,1-.011-.013L5.267,21.2a.863.863,0,0,0-.317-.062.534.534,0,0,0-.129.013,20.333,20.333,0,0,1-2.5.721l-.155.019H2.123a1.286,1.286,0,0,1-1.015-.408,1.582,1.582,0,0,1-.339-1.058l.023-.188A21.191,21.191,0,0,1,1.569,17.7a.609.609,0,0,0-.05-.466l-.211-.412A11.506,11.506,0,0,1,11.522,0h.045A11.5,11.5,0,1,1,6.115,21.675Zm-.2-1.942c.106.051.24.123.425.227l.485.279.007,0,.33.168a9.925,9.925,0,0,0,10.609-1.266l.254-.215A9.9,9.9,0,0,0,11.555,1.6l-.323,0a9.893,9.893,0,0,0-8.5,14.478l.208.406a2.235,2.235,0,0,1,.145,1.731,20.4,20.4,0,0,0-.736,2.392l.108-.423.454-.119c.328-.091.636-.184.943-.286l.481-.166a2.352,2.352,0,0,1,.622-.084A2.511,2.511,0,0,1,5.919,19.734ZM15.35,11.5a1.312,1.312,0,1,1,1.312,1.312A1.312,1.312,0,0,1,15.35,11.5Zm-5.1,0a1.312,1.312,0,1,1,1.312,1.312A1.312,1.312,0,0,1,10.248,11.5Zm-5.1,0a1.312,1.312,0,1,1,1.312,1.312A1.312,1.312,0,0,1,5.146,11.5Z" transform="translate(0.081 -0.32)" fill="#72809d"/>
  </g>
</svg>
