<svg xmlns="http://www.w3.org/2000/svg" width="23.526" height="31.003" viewBox="0 0 23.526 31.003">
  <g id="_6330643_accept_check_list_lists_orders_icon_1_" data-name="6330643_accept_check_list_lists_orders_icon (1)" transform="translate(-15.5 -9.551)">
    <path id="Path_6890" data-name="Path 6890" d="M37.108,15H33.065v.779a.587.587,0,0,1-.586.586H22.047a.587.587,0,0,1-.586-.586V15H17.418A1.4,1.4,0,0,0,16,16.383V40.239a1.4,1.4,0,0,0,1.418,1.383H37.108a1.4,1.4,0,0,0,1.418-1.383V16.383A1.4,1.4,0,0,0,37.108,15Z" transform="translate(0 -1.568)" fill="none" stroke="#f85e60" stroke-miterlimit="10" stroke-width="1"/>
    <path id="Path_6891" data-name="Path 6891" d="M34.911,12.067h-3.4v-.254a1.726,1.726,0,0,0-1.283-1.7,1.7,1.7,0,0,0-2.13,1.618v.334h-3.4A.694.694,0,0,0,24,12.76V14.1a.694.694,0,0,0,.694.694H34.911A.694.694,0,0,0,35.6,14.1V12.76a.694.694,0,0,0-.694-.694Z" transform="translate(-2.539 0)" fill="none" stroke="#f85e60" stroke-linecap="round" stroke-miterlimit="10" stroke-width="1"/>
    <path id="Path_6892" data-name="Path 6892" d="M25,24H37.287" transform="translate(-2.856 -4.425)" fill="none" stroke="#f85e60" stroke-linecap="round" stroke-miterlimit="10" stroke-width="1"/>
    <path id="Path_6893" data-name="Path 6893" d="M19,22.048l.683.683L21.73,20" transform="translate(-0.952 -3.155)" fill="none" stroke="#f85e60" stroke-linecap="round" stroke-miterlimit="10" stroke-width="1"/>
    <path id="Path_6894" data-name="Path 6894" d="M25,32H37.287" transform="translate(-2.856 -6.964)" fill="none" stroke="#f85e60" stroke-linecap="round" stroke-miterlimit="10" stroke-width="1"/>
    <path id="Path_6895" data-name="Path 6895" d="M19,30.048l.683.683L21.73,28" transform="translate(-0.952 -5.694)" fill="none" stroke="#f85e60" stroke-linecap="round" stroke-miterlimit="10" stroke-width="1"/>
    <path id="Path_6896" data-name="Path 6896" d="M25,40H37.287" transform="translate(-2.856 -9.503)" fill="none" stroke="#f85e60" stroke-linecap="round" stroke-miterlimit="10" stroke-width="1"/>
    <path id="Path_6897" data-name="Path 6897" d="M19,38.048l.683.683L21.73,36" transform="translate(-0.952 -8.233)" fill="none" stroke="#f85e60" stroke-linecap="round" stroke-miterlimit="10" stroke-width="1"/>
    <path id="Path_6898" data-name="Path 6898" d="M25,48H37.287" transform="translate(-2.856 -12.042)" fill="none" stroke="#f85e60" stroke-linecap="round" stroke-miterlimit="10" stroke-width="1"/>
    <path id="Path_6899" data-name="Path 6899" d="M19,46.048l.683.683L21.73,44" transform="translate(-0.952 -10.772)" fill="none" stroke="#f85e60" stroke-linecap="round" stroke-miterlimit="10" stroke-width="1"/>
  </g>
</svg>
