<svg xmlns="http://www.w3.org/2000/svg" width="30" height="27.5" viewBox="0 0 30 27.5">
  <path id="_2638354_cheese_dinner_eating_food_icon" data-name="2638354_cheese_dinner_eating_food_icon" d="M29.25,1.125A1.127,1.127,0,0,0,28.625,1L1.125,3.5A1.233,1.233,0,0,0,0,4.75V17.5a13.172,13.172,0,0,0,13.125,11,12.855,12.855,0,0,0,2.125-.125.955.955,0,0,0,.625-.25L29.625,15.75A1.35,1.35,0,0,0,30,14.875V2.25A1.093,1.093,0,0,0,29.25,1.125ZM13.75,26a10.815,10.815,0,0,1-7-1.875A11.911,11.911,0,0,1,2.5,17.25H3.75v-2.5H2.5V10.875a12.073,12.073,0,0,0,2.875,2.75,13.491,13.491,0,0,0,8.375,2.5Zm.75-12.5a10.435,10.435,0,0,1-7.625-2A10.277,10.277,0,0,1,2.75,5.875l4.75-.5V6H10V5.25L25.125,3.875Zm13,.75L16.25,24.375v-9L22.5,9.75V11H25V8.5H23.75L27.5,5.125ZM8.75,23.5h2.5V21H8.75ZM20,17.25h2.5v-2.5H20ZM12.5,8.5V11H15V8.5Z" transform="translate(0 -1)" fill="#f85e60"/>
</svg>
