<svg xmlns="http://www.w3.org/2000/svg" width="46.769" height="27.715" viewBox="0 0 46.769 27.715">
  <g id="_8760285_food_delivery_car_delivery_car_food_truck_icon" data-name="8760285_food_delivery_car_delivery car_food truck_icon" transform="translate(-5 -23.333)">
    <path id="Path_38376" data-name="Path 38376" d="M53.695,40.124a3.39,3.39,0,0,0,3.386,3.386H66.1a3.39,3.39,0,0,0,3.386-3.386A1.242,1.242,0,0,0,69,39.139a1.551,1.551,0,0,0-.166-1.871,1.47,1.47,0,0,0,.189-1.778,1.234,1.234,0,0,0,.467-.963A6.63,6.63,0,0,0,62.864,27.9H60.317a6.63,6.63,0,0,0-6.623,6.623,1.233,1.233,0,0,0,.467.962,1.47,1.47,0,0,0,.189,1.778,1.551,1.551,0,0,0-.165,1.871A1.241,1.241,0,0,0,53.695,40.124ZM66.1,42.493h-9.02a2.372,2.372,0,0,1-2.369-2.37.229.229,0,0,1,.229-.229h13.3a.23.23,0,0,1,.229.229A2.373,2.373,0,0,1,66.1,42.493ZM54.964,38.314a.565.565,0,0,1,.564-.564H67.655a.564.564,0,1,1,0,1.127H55.527A.563.563,0,0,1,54.964,38.314Zm.482-1.58a.483.483,0,1,1,0-.965h12.29a.483.483,0,0,1,0,.965H55.446Zm4.871-7.812h2.548a5.613,5.613,0,0,1,5.606,5.606.225.225,0,0,1-.225.225H54.937a.225.225,0,0,1-.225-.225A5.612,5.612,0,0,1,60.317,28.922Z" transform="translate(-23.39 -2.196)"/>
    <path id="Path_38377" data-name="Path 38377" d="M58.207,37.606a.508.508,0,0,0,.421-.223l.1-.142a.508.508,0,1,0-.842-.57l-.1.142a.508.508,0,0,0,.42.793Z" transform="translate(-25.313 -6.3)"/>
    <path id="Path_38378" data-name="Path 38378" d="M65.415,38.394a.509.509,0,0,0,.421-.222l.1-.141a.508.508,0,1,0-.84-.572L65,37.6a.508.508,0,0,0,.419.794Z" transform="translate(-28.776 -6.678)"/>
    <path id="Path_38379" data-name="Path 38379" d="M58.44,51.946l-.1.142a.508.508,0,0,0,.135.706.5.5,0,0,0,.285.088.509.509,0,0,0,.421-.223l.1-.142a.508.508,0,0,0-.841-.571Z" transform="translate(-25.581 -13.637)"/>
    <path id="Path_38380" data-name="Path 38380" d="M70.314,51.946l-.1.142a.508.508,0,1,0,.842.57l.1-.142a.508.508,0,0,0-.842-.57Z" transform="translate(-31.285 -13.637)"/>
    <path id="Path_38381" data-name="Path 38381" d="M63.256,53.329l-.1.141a.507.507,0,0,0,.135.706.5.5,0,0,0,.285.088A.507.507,0,0,0,64,54.041l.1-.141a.508.508,0,1,0-.841-.571Z" transform="translate(-27.894 -14.301)"/>
    <path id="Path_38382" data-name="Path 38382" d="M77.019,53.192l-.1.141a.507.507,0,0,0,.135.706.5.5,0,0,0,.285.088.507.507,0,0,0,.421-.223l.1-.141a.508.508,0,0,0-.841-.571Z" transform="translate(-34.505 -14.235)"/>
    <path id="Path_38383" data-name="Path 38383" d="M77.185,34.989a.507.507,0,0,0,.421-.223l.1-.141a.508.508,0,0,0-.841-.571l-.1.141a.508.508,0,0,0,.42.794Z" transform="translate(-34.429 -5.042)"/>
    <path id="Path_38384" data-name="Path 38384" d="M73.268,38.53a.508.508,0,0,0,.421-.223l.1-.142a.508.508,0,0,0-.842-.57l-.1.142a.508.508,0,0,0,.136.706A.5.5,0,0,0,73.268,38.53Z" transform="translate(-32.548 -6.743)"/>
    <path id="Path_38385" data-name="Path 38385" d="M62.232,33.047a.508.508,0,0,0,.421-.223l.1-.142a.508.508,0,1,0-.842-.57l-.1.142a.508.508,0,0,0,.42.793Z" transform="translate(-27.247 -4.11)"/>
    <path id="Path_38386" data-name="Path 38386" d="M69.622,33.183a.509.509,0,0,0,.421-.223l.1-.142a.508.508,0,0,0-.841-.571l-.1.142a.508.508,0,0,0,.135.706A.5.5,0,0,0,69.622,33.183Z" transform="translate(-30.797 -4.175)"/>
    <path id="Path_38387" data-name="Path 38387" d="M19.494,47.536H29.662a.508.508,0,0,0,.508-.508V40.716a.508.508,0,0,0-.508-.508H21.528a.508.508,0,0,0-.484.352L19.01,46.872a.508.508,0,0,0,.484.664Zm2.4-6.312h7.255v5.3H20.192Z" transform="translate(-6.718 -8.106)"/>
    <path id="Path_38388" data-name="Path 38388" d="M51.769,23.841a.508.508,0,0,0-.508-.508H25.141a.508.508,0,0,0-.508.508v5.907H13.012a.508.508,0,0,0-.479.339L9.055,39.9l-2.821,1a.509.509,0,0,0-.339.48v3.928A.929.929,0,0,0,5,46.234v1.459a.931.931,0,0,0,.93.93H8.5a.508.508,0,0,0,.508-.508v-.64h5.062a4.132,4.132,0,0,0,8.187,0h2.886a.251.251,0,0,0,.027-.006H40.084a4.132,4.132,0,0,0,8.19,0h2.986a.508.508,0,0,0,.508-.508V43.286h0V23.841Zm-26.12.508h25.1V42.775H25.65V24.349ZM7.989,47.607H6.017V46.321H7.989v1.286ZM8.5,45.3H6.911V41.739l2.711-.958a.507.507,0,0,0,.31-.309l3.439-9.707H24.633V46.459H22.275c-.014-.123-.033-.244-.057-.364,0-.005,0-.011,0-.016q-.041-.2-.1-.384c-.012-.04-.029-.078-.042-.118-.029-.084-.058-.168-.091-.249-.02-.047-.043-.093-.065-.14-.033-.071-.065-.142-.1-.211-.026-.048-.055-.095-.082-.142-.037-.064-.075-.128-.115-.19s-.064-.092-.1-.138-.085-.117-.13-.173-.073-.087-.111-.13-.095-.107-.144-.158-.081-.081-.123-.121-.1-.1-.157-.143-.088-.074-.133-.11-.113-.086-.17-.127-.095-.067-.143-.1-.122-.076-.184-.112-.1-.057-.15-.084-.131-.065-.2-.1c-.051-.023-.1-.048-.155-.069-.07-.029-.141-.053-.212-.078-.052-.018-.1-.037-.157-.054-.076-.023-.153-.041-.231-.059-.051-.012-.1-.027-.154-.037-.087-.017-.176-.029-.266-.041-.044-.006-.088-.015-.133-.019-.135-.014-.271-.021-.409-.021a4.089,4.089,0,0,0-.409.021c-.045,0-.088.013-.133.019-.089.012-.178.023-.266.041-.052.01-.1.024-.154.037-.077.019-.155.036-.231.059-.054.016-.1.035-.157.054-.071.025-.142.049-.212.078-.052.021-.1.046-.155.069s-.133.061-.2.1-.1.055-.15.084-.124.073-.184.112-.1.064-.143.1-.115.084-.17.127-.089.072-.133.11-.107.094-.157.143-.083.08-.123.121-.1.1-.144.158-.075.086-.111.13-.087.114-.13.173-.067.091-.1.138c-.041.062-.078.126-.115.19-.028.047-.057.094-.082.142-.037.069-.069.14-.1.211-.021.047-.045.092-.065.14-.034.082-.063.165-.091.249-.014.039-.03.078-.042.118q-.058.189-.1.384c0,.005,0,.011,0,.016-.024.12-.044.241-.057.364H9.007v-.646A.509.509,0,0,0,8.5,45.3Zm9.664,4.728a3.126,3.126,0,0,1-3.116-3.072.436.436,0,0,0-.005-.064,3.123,3.123,0,0,1,3.122-3.1,3.057,3.057,0,0,1,.318.016c.053.005.1.016.157.024s.1.013.151.023a3.125,3.125,0,0,1,2.5,3.037.555.555,0,0,0-.005.066A3.125,3.125,0,0,1,18.161,50.032Zm7.488-6.237H41.464c-.04.035-.077.074-.115.11s-.083.077-.123.117-.1.11-.151.166c-.036.041-.073.081-.107.123-.049.06-.095.124-.14.187-.03.042-.062.083-.091.126-.046.068-.087.14-.128.21-.024.042-.05.082-.073.124-.044.081-.082.165-.121.249-.016.035-.034.069-.049.1q-.074.176-.133.361s0,.008,0,.011q-.059.19-.1.387c-.009.044-.014.09-.021.135-.014.082-.03.164-.039.248H25.65Zm18.529,6.237a3.123,3.123,0,0,1-3.116-3.076.456.456,0,0,0-.005-.065,3.112,3.112,0,0,1,3.7-3.041l.049.007c.04.008.078.02.118.03.06.015.122.028.18.046.023.007.046.017.069.025.073.024.146.049.217.079.09.038.179.081.265.127l.007,0A3.121,3.121,0,0,1,47.3,46.891a.455.455,0,0,0,0,.065A3.122,3.122,0,0,1,44.179,50.032Zm6.573-3.579H48.292c-.009-.084-.025-.166-.039-.248-.008-.045-.012-.09-.021-.134q-.041-.2-.1-.387c0-.007-.006-.014-.008-.021-.038-.119-.081-.236-.129-.351-.016-.037-.035-.072-.051-.109-.038-.083-.075-.166-.118-.245-.023-.043-.05-.084-.075-.126-.041-.07-.082-.141-.127-.208-.029-.044-.062-.085-.092-.127-.045-.062-.09-.125-.139-.186-.034-.042-.072-.082-.108-.123-.049-.056-.1-.113-.152-.166s-.08-.077-.121-.115-.076-.076-.117-.112h3.857v2.658Z"/>
  </g>
</svg>
