<svg xmlns="http://www.w3.org/2000/svg" width="147.817" height="147.817" viewBox="0 0 147.817 147.817">
  <g id="checked_4_" data-name="checked (4)" transform="translate(0 0)">
    <g id="Group_2924" data-name="Group 2924" transform="translate(0 0)">
      <g id="Group_2923" data-name="Group 2923" transform="translate(0 0)">
        <path id="Path_1584" data-name="Path 1584" d="M126.17,21.647A73.909,73.909,0,1,0,21.648,126.17,73.909,73.909,0,0,0,126.17,21.647ZM73.909,141.928a68.02,68.02,0,1,1,68.02-68.02A68.1,68.1,0,0,1,73.909,141.928Z" transform="translate(0 0)" fill="#45c30c"/>
      </g>
    </g>
    <g id="Group_2926" data-name="Group 2926" transform="translate(26.212 39.168)">
      <g id="Group_2925" data-name="Group 2925">
        <path id="Path_1585" data-name="Path 1585" d="M180.52,138.68a10.318,10.318,0,0,0-14.575,0l-43.359,43.359-14.208-14.208A10.306,10.306,0,0,0,93.8,182.407l21.5,21.5a10.307,10.307,0,0,0,14.575,0l50.647-50.646A10.319,10.319,0,0,0,180.52,138.68Zm-4.164,10.41-50.646,50.646a4.416,4.416,0,0,1-6.246,0l-21.5-21.5A4.417,4.417,0,0,1,104.214,172l16.29,16.29a2.945,2.945,0,0,0,4.165,0l45.441-45.441a4.417,4.417,0,1,1,6.246,6.246Z" transform="translate(-90.79 -135.667)" fill="#45c30c"/>
      </g>
    </g>
    <g id="Group_2928" data-name="Group 2928" transform="translate(70.964 85.981)">
      <g id="Group_2927" data-name="Group 2927">
        <path id="Path_1586" data-name="Path 1586" d="M308.257,297.906a2.943,2.943,0,0,0-3.58,2.127,57.653,57.653,0,0,1-55.931,43.423,2.945,2.945,0,0,0,0,5.889,63.537,63.537,0,0,0,61.638-47.858A2.944,2.944,0,0,0,308.257,297.906Z" transform="translate(-245.801 -297.814)" fill="#45c30c"/>
      </g>
    </g>
    <g id="Group_2930" data-name="Group 2930" transform="translate(131.565 70.965)">
      <g id="Group_2929" data-name="Group 2929">
        <path id="Path_1587" data-name="Path 1587" d="M458.709,245.8a2.945,2.945,0,0,0-2.945,2.945c0,.842-.018,1.69-.054,2.523a2.944,2.944,0,0,0,2.815,3.069l.129,0a2.945,2.945,0,0,0,2.94-2.818c.04-.917.06-1.851.06-2.777A2.945,2.945,0,0,0,458.709,245.8Z" transform="translate(-455.707 -245.802)" fill="#45c30c"/>
      </g>
    </g>
  </g>
</svg>
