<svg xmlns="http://www.w3.org/2000/svg" width="348.859" height="175.987" viewBox="0 0 348.859 175.987">
  <path id="Path_6873" data-name="Path 6873" d="M379.322,321.52a37.727,37.727,0,0,0,19.111,29.058c10.586,5.791,23.873,6.824,34.6,1.292,2.592,8.526,11.446,14.227,19.892,11.384a45.614,45.614,0,0,0,26.7,28.857,43.514,43.514,0,0,0,38.2-3.453,19.686,19.686,0,0,0,8.949,15.983c5.367,3.415,14.363,6.251,20.17,3.655a51.548,51.548,0,0,0,26.04,44.376c15.746,8.712,36.2,8.751,51.4-.872,4.606,12.651,19.646,19.364,32.246,14.621a63.816,63.816,0,0,0,71.306,28.9l.246-173.837Z" transform="translate(-379.322 -321.488)" fill="rgba(0,0,0,0.07)"/>
</svg>
