<svg xmlns="http://www.w3.org/2000/svg" width="12.295" height="12.295" viewBox="0 0 12.295 12.295">
  <path id="_8725775_edit_icon" data-name="8725775_edit_icon" d="M13.677,8.143a.615.615,0,0,0-.615.615v3.687a.615.615,0,0,1-.615.615h-8.6a.615.615,0,0,1-.615-.615v-8.6a.615.615,0,0,1,.615-.615H7.531A.615.615,0,0,0,7.531,2H3.844A1.844,1.844,0,0,0,2,3.841v8.6a1.844,1.844,0,0,0,1.844,1.844h8.6a1.844,1.844,0,0,0,1.844-1.844V8.758A.615.615,0,0,0,13.677,8.143ZM4.458,8.61v2.606a.615.615,0,0,0,.615.615H7.679a.615.615,0,0,0,.436-.178l4.253-4.259h0l1.745-1.708a.615.615,0,0,0,0-.873L11.507,2.176a.615.615,0,0,0-.873,0L8.9,3.915h0L4.636,8.174A.615.615,0,0,0,4.458,8.61Zm6.613-5.132L12.81,5.218l-.873.873L10.2,4.352ZM5.687,8.862,9.332,5.218l1.739,1.739L7.427,10.6H5.687Z" transform="translate(-2 -1.994)" fill="#f85e60"/>
</svg>
