<svg xmlns="http://www.w3.org/2000/svg" xmlns:xlink="http://www.w3.org/1999/xlink" width="82.849" height="85.336" viewBox="0 0 82.849 85.336">
  <defs>
    <clipPath id="clip-path">
      <path id="Path_38365" data-name="Path 38365" d="M54.9,68.724,93.2,41.831a3.7,3.7,0,0,0-1.222-1.548L93.53,12.82c-1.385-1.059-74.4-1.059-75.789,0l.081,27.463a3.472,3.472,0,0,0-1.222,1.63Z" transform="translate(-16.6 -12.025)"/>
    </clipPath>
  </defs>
  <g id="_1622832_documents_email_envelope_feed_letter_icon" data-name="1622832_documents_email_envelope_feed_letter_icon" transform="translate(-11.607 -11.689)">
    <path id="Path_38362" data-name="Path 38362" d="M91.908,40.468,57.273,13.82a4.034,4.034,0,0,0-4.808,0L17.748,40.468A3.9,3.9,0,0,0,16.2,43.646v48.57a4,4,0,0,0,3.993,3.993h69.27a4,4,0,0,0,3.993-3.993V43.646A4.016,4.016,0,0,0,91.908,40.468Z" transform="translate(0 -0.185)" fill="#ffc408"/>
    <line id="Line_2532" data-name="Line 2532" x2="47.266" y2="33.087" transform="translate(17.178 47.373)" fill="none" stroke="#fff" stroke-linecap="round" stroke-linejoin="round" stroke-miterlimit="10" stroke-width="8" opacity="0.2"/>
    <path id="Path_38363" data-name="Path 38363" d="M91.908,40.468,57.273,13.82a4.034,4.034,0,0,0-4.808,0L17.748,40.468A3.9,3.9,0,0,0,16.2,43.646v48.57a4,4,0,0,0,3.993,3.993h69.27a4,4,0,0,0,3.993-3.993V43.646A4.016,4.016,0,0,0,91.908,40.468Z" transform="translate(0 -0.185)" fill="none" stroke="#242c88" stroke-linecap="round" stroke-linejoin="round" stroke-miterlimit="10" stroke-width="2"/>
    <path id="Path_38364" data-name="Path 38364" d="M54.9,68.909,93.2,42.016a3.7,3.7,0,0,0-1.222-1.548L57.347,13.82a4.034,4.034,0,0,0-4.808,0L17.822,40.468A3.472,3.472,0,0,0,16.6,42.1Z" transform="translate(-0.074 -0.185)" fill="#242c88" opacity="0.2"/>
    <g id="Group_173511" data-name="Group 173511" transform="translate(16.526 12.025)">
      <g id="Group_173501" data-name="Group 173501" transform="translate(0)" clip-path="url(#clip-path)">
        <rect id="Rectangle_5462" data-name="Rectangle 5462" width="58.676" height="39.932" transform="translate(4.401 6.499)" fill="#fff"/>
      </g>
      <g id="Group_173502" data-name="Group 173502" transform="translate(0)" clip-path="url(#clip-path)">
        <rect id="Rectangle_5463" data-name="Rectangle 5463" width="58.676" height="39.932" transform="translate(4.401 6.499)" fill="none" stroke="#242c88" stroke-linecap="round" stroke-linejoin="round" stroke-miterlimit="10" stroke-width="2"/>
      </g>
      <g id="Group_173503" data-name="Group 173503" transform="translate(0)" clip-path="url(#clip-path)">
        <path id="Path_38367" data-name="Path 38367" d="M81.971,60.857V25H30.63A1.635,1.635,0,0,0,29,26.63V60.857Z" transform="translate(-18.895 -14.426)" fill="#242c88" opacity="0.2"/>
      </g>
      <g id="Group_173504" data-name="Group 173504" transform="translate(0)" clip-path="url(#clip-path)">
        <rect id="Rectangle_5464" data-name="Rectangle 5464" width="58.676" height="47.266" transform="translate(14.18 14.649)" fill="#fff"/>
      </g>
      <g id="Group_173505" data-name="Group 173505" transform="translate(0)" clip-path="url(#clip-path)">
        <rect id="Rectangle_5465" data-name="Rectangle 5465" width="58.676" height="47.266" transform="translate(14.18 14.649)" fill="none" stroke="#242c88" stroke-linecap="round" stroke-linejoin="round" stroke-miterlimit="10" stroke-width="2"/>
      </g>
      <g id="Group_173506" data-name="Group 173506" transform="translate(0 0)" clip-path="url(#clip-path)">
        <line id="Line_2533" data-name="Line 2533" x2="34.227" transform="translate(26.404 33.392)" fill="none" stroke="#242c88" stroke-linecap="round" stroke-linejoin="round" stroke-miterlimit="10" stroke-width="2" opacity="0.2"/>
      </g>
      <g id="Group_173507" data-name="Group 173507" transform="translate(0 0)" clip-path="url(#clip-path)">
        <line id="Line_2534" data-name="Line 2534" x2="34.227" transform="translate(26.404 28.502)" fill="none" stroke="#242c88" stroke-linecap="round" stroke-linejoin="round" stroke-miterlimit="10" stroke-width="2" opacity="0.2"/>
      </g>
      <g id="Group_173508" data-name="Group 173508" transform="translate(0 0)" clip-path="url(#clip-path)">
        <line id="Line_2535" data-name="Line 2535" x2="34.227" transform="translate(26.404 43.171)" fill="none" stroke="#242c88" stroke-linecap="round" stroke-linejoin="round" stroke-miterlimit="10" stroke-width="2" opacity="0.2"/>
      </g>
      <g id="Group_173509" data-name="Group 173509" transform="translate(0 0)" clip-path="url(#clip-path)">
        <line id="Line_2536" data-name="Line 2536" x2="17.114" transform="translate(26.404 48.061)" fill="none" stroke="#242c88" stroke-linecap="round" stroke-linejoin="round" stroke-miterlimit="10" stroke-width="2" opacity="0.2"/>
      </g>
      <g id="Group_173510" data-name="Group 173510" transform="translate(0 0)" clip-path="url(#clip-path)">
        <line id="Line_2537" data-name="Line 2537" x2="34.227" transform="translate(26.404 38.282)" fill="none" stroke="#242c88" stroke-linecap="round" stroke-linejoin="round" stroke-miterlimit="10" stroke-width="2" opacity="0.2"/>
      </g>
    </g>
    <line id="Line_2538" data-name="Line 2538" x2="49.548" y2="34.635" transform="translate(17.178 42.483)" fill="none" stroke="#242c88" stroke-linecap="round" stroke-linejoin="round" stroke-miterlimit="10" stroke-width="2"/>
    <line id="Line_2539" data-name="Line 2539" x1="37.65" y2="26.241" transform="translate(54.828 42.483)" fill="none" stroke="#242c88" stroke-linecap="round" stroke-linejoin="round" stroke-miterlimit="10" stroke-width="2"/>
  </g>
</svg>
