<svg xmlns="http://www.w3.org/2000/svg" width="27" height="14" viewBox="0 0 27 14">
  <g id="Group_173781" data-name="Group 173781" transform="translate(1924 237)">
    <path id="Combined_Shape" data-name="Combined Shape" d="M4.667,14a1.167,1.167,0,0,1,0-2.334H5.833a1.167,1.167,0,0,1,0,2.334Zm-3.5-5.834a1.167,1.167,0,0,1,0-2.334H5.833a1.167,1.167,0,0,1,0,2.334ZM3.5,2.334A1.167,1.167,0,1,1,3.5,0H5.833a1.167,1.167,0,0,1,0,2.334Z" transform="translate(-1924 -237)" fill="#b5b5b5"/>
    <path id="Combined_Shape-2" data-name="Combined Shape" d="M16,14H2a2,2,0,0,1-2-2V2A2,2,0,0,1,2,0H16a2,2,0,0,1,2,2V12A2,2,0,0,1,16,14ZM2.949,2.333A.7.7,0,0,0,2.617,3.65L8.669,6.917a.7.7,0,0,0,.662,0L15.383,3.65a.7.7,0,1,0-.662-1.232L9,5.505,3.28,2.417A.7.7,0,0,0,2.949,2.333Z" transform="translate(-1915 -237)" fill="#b5b5b5"/>
  </g>
</svg>
