<svg xmlns="http://www.w3.org/2000/svg" width="144.798" height="111.383" viewBox="0 0 144.798 111.383">
  <g id="_4900854_card_credit_error_payment_transaction_icon" data-name="4900854_card_credit_error_payment_transaction_icon" transform="translate(-6 -12)">
    <rect id="Rectangle_5343" data-name="Rectangle 5343" width="16.184" height="16.993" transform="translate(131.372 58.997)" fill="#fff"/>
    <path id="Path_6944" data-name="Path 6944" d="M49.4,31c-8.354,0-8.354,2.785-8.354,8.354A7.385,7.385,0,0,0,49.4,47.707c5.569,0,8.354-5.569,5.569-11.138S52.186,31,49.4,31Z" transform="translate(62.412 33.907)" fill="#fff"/>
    <path id="Path_6945" data-name="Path 6945" d="M26.138,17C17.785,17,15,17,15,25.354s2.785,8.354,11.138,8.354,11.138,0,11.138-8.354S31.707,17,26.138,17Z" transform="translate(16.061 8.923)" fill="#fff"/>
    <ellipse id="Ellipse_1456" data-name="Ellipse 1456" cx="21.848" cy="22.252" rx="21.848" ry="22.252" transform="translate(9.186 75.989)" fill="#fff"/>
    <g id="Group_10409" data-name="Group 10409" transform="translate(6 12)">
      <path id="Path_6946" data-name="Path 6946" d="M135.306,28.707h-8.354V20.354A8.354,8.354,0,0,0,118.6,12H18.354A8.354,8.354,0,0,0,10,20.354V67.691a2.785,2.785,0,0,0,5.569,0V20.354a2.785,2.785,0,0,1,2.785-2.785H118.6a2.785,2.785,0,0,1,2.785,2.785v66.83a2.785,2.785,0,0,1-2.785,2.785H57.338a2.785,2.785,0,0,0,0,5.569H118.6a8.354,8.354,0,0,0,8.354-8.354V78.83H138.09v25.061a2.785,2.785,0,0,1-2.785,2.785H54.553a2.785,2.785,0,1,0,0,5.569h80.752a8.354,8.354,0,0,0,8.354-8.354V37.061A8.354,8.354,0,0,0,135.306,28.707Zm0,5.569a2.785,2.785,0,0,1,2.785,2.785V56.553H126.952V34.277ZM126.952,73.26V62.122H138.09V73.26Z" transform="translate(1.138 -12)" fill="#eb0003"/>
      <path id="Path_6947" data-name="Path 6947" d="M55.061,26H32.785a2.785,2.785,0,1,0,0,5.569H55.061a2.785,2.785,0,1,0,0-5.569Z" transform="translate(36.83 12.984)" fill="#eb0003"/>
      <path id="Path_6948" data-name="Path 6948" d="M55.923,31.569a2.785,2.785,0,1,0,0-5.569H44.785a2.785,2.785,0,1,0,0,5.569Z" transform="translate(58.244 12.984)" fill="#eb0003"/>
      <path id="Path_6949" data-name="Path 6949" d="M22,28.785a2.785,2.785,0,0,0,2.785,2.785H35.923a2.785,2.785,0,1,0,0-5.569H24.785A2.785,2.785,0,0,0,22,28.785Z" transform="translate(22.553 12.984)" fill="#eb0003"/>
      <path id="Path_6950" data-name="Path 6950" d="M16.785,31.569H27.923a2.785,2.785,0,1,0,0-5.569H16.785a2.785,2.785,0,1,0,0,5.569Z" transform="translate(8.277 12.984)" fill="#eb0003"/>
      <path id="Path_6951" data-name="Path 6951" d="M33.492,16H22.354A8.354,8.354,0,0,0,14,24.354v5.569a8.354,8.354,0,0,0,8.354,8.354H33.492a8.354,8.354,0,0,0,8.354-8.354V24.354A8.354,8.354,0,0,0,33.492,16Zm2.785,13.923a2.785,2.785,0,0,1-2.785,2.785H22.354a2.785,2.785,0,0,1-2.785-2.785V24.354a2.785,2.785,0,0,1,2.785-2.785H33.492a2.785,2.785,0,0,1,2.785,2.785Z" transform="translate(8.277 -4.862)" fill="#eb0003"/>
      <path id="Path_6952" data-name="Path 6952" d="M31.061,34A25.061,25.061,0,1,0,56.122,59.061,25.061,25.061,0,0,0,31.061,34Zm0,44.553A19.492,19.492,0,1,1,50.553,59.061,19.492,19.492,0,0,1,31.061,78.553Z" transform="translate(-6 27.261)" fill="#eb0003"/>
      <path id="Path_6953" data-name="Path 6953" d="M46.157,30a11.138,11.138,0,1,0,6.989,19.787,11.027,11.027,0,0,0,6.934,2.489A11.138,11.138,0,1,0,60.08,30a11.027,11.027,0,0,0-6.934,2.489A11.108,11.108,0,0,0,46.157,30ZM40.588,41.138a5.569,5.569,0,0,1,5.569-5.569,5.48,5.48,0,0,1,3.62,1.353,10.993,10.993,0,0,0,0,8.434,5.483,5.483,0,0,1-3.62,1.351,5.569,5.569,0,0,1-5.569-5.569ZM60.08,35.569a5.569,5.569,0,1,1-5.569,5.569A5.569,5.569,0,0,1,60.08,35.569Z" transform="translate(45.733 20.122)" fill="#eb0003"/>
      <path id="Path_6954" data-name="Path 6954" d="M16.785,38A2.785,2.785,0,0,0,14,40.785V54.707a2.785,2.785,0,1,0,5.569,0V40.785A2.785,2.785,0,0,0,16.785,38Z" transform="translate(8.277 34.399)" fill="#eb0003"/>
      <ellipse id="Ellipse_1457" data-name="Ellipse 1457" cx="3.237" cy="2.832" rx="3.237" ry="2.832" transform="translate(21.797 94.738)" fill="#eb0003"/>
    </g>
  </g>
</svg>
