<svg xmlns="http://www.w3.org/2000/svg" width="35" height="35" viewBox="0 0 35 35">
  <g id="_5850361_exercise_fitness_gym_icon" data-name="5850361_exercise_fitness_gym_icon" transform="translate(-2.047 -2.047)">
    <circle id="Ellipse_1491" data-name="Ellipse 1491" cx="17.5" cy="17.5" r="17.5" transform="translate(2.047 2.047)" fill="#d9e2e9"/>
    <rect id="Rectangle_32979" data-name="Rectangle 32979" width="1.119" height="7.399" transform="translate(15.331 21.941)" fill="#bd8d5a"/>
    <path id="Path_43645" data-name="Path 43645" d="M70.3,111.385H69.183a.145.145,0,0,1-.143-.143v-7.4a.145.145,0,0,1,.143-.143H70.3a.143.143,0,0,1,.143.143v7.4A.143.143,0,0,1,70.3,111.385Zm-.976-.286h.833v-7.113h-.833Z" transform="translate(-53.852 -81.902)" fill="#00063c"/>
    <rect id="Rectangle_32980" data-name="Rectangle 32980" width="1.119" height="7.399" transform="translate(27.797 21.941)" fill="#bd8d5a"/>
    <path id="Path_43646" data-name="Path 43646" d="M135.642,111.385h-1.119a.143.143,0,0,1-.143-.143v-7.4a.143.143,0,0,1,.143-.143h1.119a.145.145,0,0,1,.143.143v7.4a.145.145,0,0,1-.143.143Zm-.976-.286h.833v-7.113h-.833Z" transform="translate(-106.732 -81.902)" fill="#00063c"/>
    <path id="Path_43647" data-name="Path 43647" d="M49.205,83.024l-2.033-.645s-5.2-.919-5.126,1.678l1.762,7.976,1.358.1s.435-4.329-.6-6.954c0,0,3.232.736,4.708-.727C49.665,84.071,48.952,83.751,49.205,83.024Z" transform="translate(-32.005 -64.52)" fill="#e8c79c"/>
    <path id="Path_43648" data-name="Path 43648" d="M44.567,91.65h-.011l-1.358-.1a.145.145,0,0,1-.128-.113L41.308,83.45a.146.146,0,0,1,0-.029,1.548,1.548,0,0,1,.543-1.274c1.321-1.144,4.611-.572,4.75-.547l2.05.646a.141.141,0,0,1,.086.072.149.149,0,0,1,0,.111.912.912,0,0,0,.08.746c.1.225.214.482-.05.744-1.285,1.272-3.778.953-4.576.814a19.056,19.056,0,0,1,.522,6.777A.143.143,0,0,1,44.567,91.65Zm-1.241-.381,1.11.086c.063-.763.305-4.449-.606-6.748a.147.147,0,0,1,.025-.147.141.141,0,0,1,.139-.055c.032,0,3.173.7,4.576-.688.118-.116.09-.191-.01-.425a1.247,1.247,0,0,1-.13-.812l-1.907-.6c-.015,0-3.278-.572-4.5.488a1.255,1.255,0,0,0-.444,1.035Z" transform="translate(-31.406 -63.884)" fill="#00063c"/>
    <path id="Path_43649" data-name="Path 43649" d="M36.512,137.123v-.547c0,.025.076.21,1.934.158l1.482-.107a.111.111,0,0,0,.092-.059l.149-.28h0l.942-.048v.044a2.622,2.622,0,0,1-.1.871,18.946,18.946,0,0,1-3.488.2s-.919.023-1.014-.242Z" transform="translate(-27.525 -108.238)" fill="#2f3a5a"/>
    <path id="Path_43650" data-name="Path 43650" d="M37.391,136.9h-.425c-.3,0-1.03,0-1.144-.338a.139.139,0,0,1,0-.048v-.551a.141.141,0,0,1,.139-.143.139.139,0,0,1,.126.065,5.351,5.351,0,0,0,1.808.093l1.459-.1.141-.265a.141.141,0,0,1,.12-.076l.942-.048a.141.141,0,0,1,.149.133v.044a2.738,2.738,0,0,1-.107.931c-.031.084-.048.128-1.123.217C38.989,136.86,38.264,136.9,37.391,136.9Zm-.427-.29a21.26,21.26,0,0,0,3.377-.181,2.587,2.587,0,0,0,.072-.645l-.717.034-.113.21a.25.25,0,0,1-.208.135l-1.48.107a8.061,8.061,0,0,1-1.8-.072v.275A1.747,1.747,0,0,0,36.963,136.614Z" transform="translate(-26.966 -107.63)" fill="#00063c"/>
    <path id="Path_43651" data-name="Path 43651" d="M36.364,131.893s-.017-.122.16-.223a.614.614,0,0,1,.145-.065l.124-.04.057-.019h0l.04-.013.044-.015.027-.011.04-.013.05-.017.1-.038.042-.015.116-.044h.1l.046-.017h.01s1.3-.826,1.43-.85c.069-.015.208.063.355.143l.048.027a.927.927,0,0,0,1.053.05.536.536,0,0,0,.16-.191.126.126,0,0,1,.135-.084c.069.013.147.263.206.547v.023a.157.157,0,0,0,.015.082c.015.027,0,.023,0,.034s.013.072.019.109v.069a1.051,1.051,0,0,0,.019.141c.006.044.013.107.017.151l-.858.044a.145.145,0,0,0-.122.076l-.1.191a.149.149,0,0,1-.118.076l-1.463.1c-1.857.053-1.932-.133-1.934-.158Z" transform="translate(-27.379 -103.555)" fill="#8fb6f8"/>
    <path id="Path_43652" data-name="Path 43652" d="M37.219,131.477c-1.436,0-1.451-.191-1.459-.3v-.015a.391.391,0,0,1,.236-.345.781.781,0,0,1,.174-.078l.12-.038.522-.191.025-.01H36.9l.061-.023a12.327,12.327,0,0,1,1.463-.862c.128-.025.233.04.439.153l.093.051a.75.75,0,0,0,.866.042.406.406,0,0,0,.12-.147.265.265,0,0,1,.288-.16c.1.021.191.084.318.658l.031.145a.746.746,0,0,0,.019.111v.044l-.137.048.141-.023a1.1,1.1,0,0,0,.021.145c.006.046.013.111.017.158a.141.141,0,0,1-.135.154l-.858.044-.1.191a.288.288,0,0,1-.235.153l-1.463.1C37.612,131.475,37.4,131.477,37.219,131.477Zm-1.144-.368a7.021,7.021,0,0,0,1.756.072l1.455-.1.1-.191a.29.29,0,0,1,.24-.153l.707-.036a1.183,1.183,0,0,0-.019-.133V130.5a.645.645,0,0,0-.019-.109l-.023-.113v-.025a2.954,2.954,0,0,0-.1-.381.667.667,0,0,1-.174.191,1.007,1.007,0,0,1-1.18-.025L38.744,130a1.652,1.652,0,0,0-.259-.128c-.132.057-.793.46-1.379.829l-.023.011-.059.023-.023.01-.055.021-.072-.126.05.133-.334.124H36.57l-.193.078-.13.04a.487.487,0,0,0-.1.05.3.3,0,0,0-.067.048Z" transform="translate(-26.918 -102.824)" fill="#00063c"/>
    <path id="Path_43653" data-name="Path 43653" d="M35.9,137.556a.145.145,0,0,1-.143-.126.158.158,0,0,1,.01-.072.143.143,0,0,1,.275.065.141.141,0,0,1-.124.132Z" transform="translate(-26.914 -109.071)" fill="#00063c"/>
    <path id="Path_43654" data-name="Path 43654" d="M108.357,34.918a25.006,25.006,0,0,0-.275-3.659s1.058-1.823.776-2.212a1.122,1.122,0,0,0-.843-.307.191.191,0,0,0-.191.217,3.6,3.6,0,0,1-.149,1.077c-.065-.116-.229-.353-.347-.522a.244.244,0,0,0-.418.25,4.643,4.643,0,0,1,.328,1.211,6.262,6.262,0,0,0-.381,3.579c-.839,4.538-.42,1.661.013,3.814l2.2,1.186A30.252,30.252,0,0,0,108.357,34.918Z" transform="translate(-84.067 -21.236)" fill="#e8c79c"/>
    <path id="Path_43655" data-name="Path 43655" d="M108.519,39.088a.139.139,0,0,1-.067-.017l-2.206-1.186a.156.156,0,0,1-.072-.1c-.151-.763-.292-.828-.345-.854-.212-.109-.212-.109.069-1.6.069-.358.153-.809.257-1.377a6.361,6.361,0,0,1,.37-3.61,4.319,4.319,0,0,0-.307-1.116.387.387,0,0,1,.665-.4l.172.248a2.456,2.456,0,0,0,.067-.7.328.328,0,0,1,.082-.273.347.347,0,0,1,.252-.107,1.22,1.22,0,0,1,.953.366c.292.4-.4,1.728-.744,2.324a24.128,24.128,0,0,1,.269,3.623,29.61,29.61,0,0,1,.727,4.655.149.149,0,0,1-.078.109A.126.126,0,0,1,108.519,39.088Zm-2.078-1.424,1.945,1.047a39.276,39.276,0,0,0-.732-4.361.13.13,0,0,1,0-.04,24.426,24.426,0,0,0-.275-3.623V30.67a.137.137,0,0,1,.019-.072,4.157,4.157,0,0,0,.786-2.056,1.015,1.015,0,0,0-.734-.248.032.032,0,0,0-.032.013.057.057,0,0,0-.013.042,3.725,3.725,0,0,1-.153,1.144.143.143,0,0,1-.12.1.139.139,0,0,1-.141-.072c-.05-.086-.17-.267-.341-.509a.1.1,0,0,0-.135-.027.1.1,0,0,0-.036.128,4.706,4.706,0,0,1,.343,1.276.156.156,0,0,1-.023.078,6.067,6.067,0,0,0-.353,3.474.116.116,0,0,1,0,.051c-.107.572-.191,1.041-.261,1.405a12.752,12.752,0,0,0-.219,1.3C106.121,36.772,106.286,36.93,106.441,37.664Z" transform="translate(-83.503 -20.637)" fill="#00063c"/>
    <path id="Path_43656" data-name="Path 43656" d="M107.522,70.555l-2.633-.345L104.66,73.6l3.192,1.436Z" transform="translate(-82.679 -54.799)" fill="#6c95f8"/>
    <path id="Path_43657" data-name="Path 43657" d="M107.244,74.573a.162.162,0,0,1-.059-.011l-3.192-1.438a.145.145,0,0,1-.084-.139l.231-3.389a.141.141,0,0,1,.16-.132l2.633.343a.145.145,0,0,1,.124.132l.33,4.481a.141.141,0,0,1-.143.153ZM104.193,72.9l2.883,1.3-.29-4.125-2.366-.309Z" transform="translate(-82.072 -54.194)" fill="#00063c"/>
    <path id="Path_43658" data-name="Path 43658" d="M52.147,83.9l-1.783-.725s-5.446-.839-5.368,1.77l1.762,7.975,1.358.1s.437-4.329-.6-6.954c0,0,3.232.736,4.708-.725C52.6,84.944,51.894,84.625,52.147,83.9Z" transform="translate(-34.392 -65.187)" fill="#e8c79c"/>
    <path id="Path_43659" data-name="Path 43659" d="M59.129,87.441c-1.478,1.463-4.71.727-4.71.727,1.041,2.626.6,6.954.6,6.954l-1.356-.1-.128-.572.66.05s.437-4.329-.6-6.954c0,0,3.232.736,4.708-.725.336-.334-.145-.618-.122-1.157l.877.355C58.809,86.741,59.518,87.06,59.129,87.441Z" transform="translate(-41.307 -67.302)" fill="#d0aa79"/>
    <path id="Path_43660" data-name="Path 43660" d="M47.478,92.534h-.011l-1.356-.1a.147.147,0,0,1-.13-.113l-1.762-7.975v-.027a1.548,1.548,0,0,1,.528-1.255c1.358-1.2,4.859-.673,5.006-.65h.032l1.783.727a.143.143,0,0,1,.082.179.915.915,0,0,0,.08.744c.1.227.214.482-.05.744-1.285,1.272-3.778.953-4.586.814a19.074,19.074,0,0,1,.524,6.777A.145.145,0,0,1,47.478,92.534Zm-1.239-.381,1.11.086c.061-.763.3-4.447-.608-6.748a.147.147,0,0,1,.025-.147A.143.143,0,0,1,46.9,85.3c.032,0,3.175.7,4.576-.688.116-.116.088-.191-.011-.423a1.258,1.258,0,0,1-.126-.816l-1.638-.677c-.259-.038-3.543-.484-4.756.585a1.251,1.251,0,0,0-.439,1.016Z" transform="translate(-33.762 -64.566)" fill="#00063c"/>
    <path id="Path_43661" data-name="Path 43661" d="M39.422,138.277v-.542c0,.025.074.21,1.934.158l1.48-.107a.107.107,0,0,0,.092-.059l.151-.28h0l.942-.048v.044a2.614,2.614,0,0,1-.1.871,18.932,18.932,0,0,1-3.486.2s-.919.025-1.016-.242Z" transform="translate(-29.88 -109.176)" fill="#2f3a5a"/>
    <path id="Path_43662" data-name="Path 43662" d="M40.323,138.034H39.9c-.3,0-1.028,0-1.144-.338a.139.139,0,0,1,0-.048v-.542a.141.141,0,0,1,.137-.143.145.145,0,0,1,.126.065,5.359,5.359,0,0,0,1.81.093l1.457-.1.141-.265a.143.143,0,0,1,.12-.076l.942-.048a.141.141,0,0,1,.149.133v.044a2.738,2.738,0,0,1-.107.931c-.031.084-.048.13-1.123.217C41.915,137.991,41.192,138.034,40.323,138.034Zm-.427-.29a21.359,21.359,0,0,0,3.375-.179,2.7,2.7,0,0,0,.074-.646l-.719.036-.111.208a.256.256,0,0,1-.21.135l-1.48.107a7.528,7.528,0,0,1-1.8-.072v.277a1.729,1.729,0,0,0,.866.135Z" transform="translate(-29.337 -108.552)" fill="#00063c"/>
    <path id="Path_43663" data-name="Path 43663" d="M39.274,132.962s-.015-.122.16-.221a.544.544,0,0,1,.145-.067l.124-.04.057-.019h.01l.04-.013.044-.015.029-.01.038-.015.051-.017.1-.038.042-.015.116-.044h.023l.023-.01h.055l.046-.017h0s1.3-.826,1.43-.85c.069-.015.208.063.355.145l.048.025a.926.926,0,0,0,1.053.051.547.547,0,0,0,.162-.191.128.128,0,0,1,.135-.084c.069.013.145.265.2.547v.023a.619.619,0,0,0,.015.082.221.221,0,0,1,0,.034.72.72,0,0,0,.019.109.087.087,0,0,1,0,.042v.027a1.044,1.044,0,0,0,.021.141c.006.044.011.107.017.153l-.86.042a.143.143,0,0,0-.12.076l-.1.191a.147.147,0,0,1-.118.076l-1.463.1c-1.857.053-1.932-.133-1.934-.158Z" transform="translate(-29.734 -104.414)" fill="#8fb6f8"/>
    <path id="Path_43664" data-name="Path 43664" d="M40.131,132.571c-1.438,0-1.451-.191-1.461-.3v-.013a.391.391,0,0,1,.233-.347.845.845,0,0,1,.175-.078l.118-.038.522-.191.025-.01h.065l.057-.023a13.867,13.867,0,0,1,1.464-.862c.111-.021.231.04.435.151l.1.055a.75.75,0,0,0,.866.04.422.422,0,0,0,.118-.147.261.261,0,0,1,.29-.158c.1.019.191.084.318.656l.029.145a.746.746,0,0,0,.019.111v.044l-.137.048.141-.021a1.153,1.153,0,0,0,.021.145c.006.046.013.109.017.156a.145.145,0,0,1-.034.107.141.141,0,0,1-.1.048l-.858.044-.1.191a.284.284,0,0,1-.233.151l-1.464.1C40.522,132.569,40.314,132.571,40.131,132.571Zm-1.144-.368a7.032,7.032,0,0,0,1.756.072l1.457-.1.1-.191a.288.288,0,0,1,.24-.153l.706-.034a.856.856,0,0,0-.019-.135v-.065a.5.5,0,0,0-.019-.109l-.021-.112a.116.116,0,0,1,0-.025,3.052,3.052,0,0,0-.1-.381.673.673,0,0,1-.175.191,1.007,1.007,0,0,1-1.18-.025l-.074-.042a1.465,1.465,0,0,0-.261-.126c-.132.055-.791.458-1.379.829a.132.132,0,0,1-.029.013l-.053.021-.069-.128.044.137-.408.151h-.048l-.154.051-.128.042a.477.477,0,0,0-.1.048.359.359,0,0,0-.084.072Z" transform="translate(-29.273 -103.711)" fill="#00063c"/>
    <path id="Path_43665" data-name="Path 43665" d="M38.8,138.651a.143.143,0,0,1-.141-.124.132.132,0,0,1,0-.067.143.143,0,1,1,.153.191Z" transform="translate(-29.263 -109.958)" fill="#00063c"/>
    <path id="Path_43666" data-name="Path 43666" d="M123.037,77.988l-.81-.381-.276.084a6.051,6.051,0,0,0-.536-.395c-.235-.145-.3.017-.381.24,0,0-.275-.044-.347.114,0,0-.153-.326-.351-.015,0,0-.113.086-.286-.057s-.448.1-.5.477a4.276,4.276,0,0,0-.04.606l-1.243-.25.139,2.719s1.661-.4,1.947-.41a1.581,1.581,0,0,1,.723.1,2.213,2.213,0,0,0,1.27.347c.4-.065.789.08,1.217-.448s.223-2.155.33-2.464S123.037,77.988,123.037,77.988Z" transform="translate(-93.694 -60.489)" fill="#e8c79c"/>
    <path id="Path_43667" data-name="Path 43667" d="M121.617,80.75a2.711,2.711,0,0,1-1.18-.381,1.411,1.411,0,0,0-.666-.086c-.223.01-1.463.3-1.92.406a.143.143,0,0,1-.12-.025.141.141,0,0,1-.057-.107l-.124-2.713a.145.145,0,0,1,.05-.114.143.143,0,0,1,.122-.032l1.075.217a4.245,4.245,0,0,1,.038-.45.763.763,0,0,1,.395-.62.32.32,0,0,1,.334.05.191.191,0,0,0,.1.051.33.33,0,0,1,.284-.16.3.3,0,0,1,.179.08.543.543,0,0,1,.229-.051.418.418,0,0,1,.225-.273.381.381,0,0,1,.326.059c.179.113.381.277.49.357l.2-.061a.141.141,0,0,1,.1,0l.78.358c.254,0,.778,0,.936.217a.259.259,0,0,1,.036.244,3.323,3.323,0,0,0-.031.608,3.538,3.538,0,0,1-.322,1.907,1.2,1.2,0,0,1-1.041.479,2.369,2.369,0,0,0-.265.021A1.1,1.1,0,0,1,121.617,80.75Zm-1.707-.763a1.434,1.434,0,0,1,.66.124,2.142,2.142,0,0,0,1.18.332,2.364,2.364,0,0,1,.3-.023.929.929,0,0,0,.828-.381,3.55,3.55,0,0,0,.259-1.716,2.963,2.963,0,0,1,.042-.69,1.657,1.657,0,0,0-.723-.092.132.132,0,0,1-.065-.013l-.753-.338-.225.069a.143.143,0,0,1-.132-.029,6.263,6.263,0,0,0-.519-.381.2.2,0,0,0-.078-.04A.812.812,0,0,0,120.6,77a.143.143,0,0,1-.158.1c-.074-.011-.179,0-.191.034a.143.143,0,0,1-.13.082h0a.143.143,0,0,1-.13-.082.242.242,0,0,0-.05-.067.763.763,0,0,0-.051.069.155.155,0,0,1-.034.036.381.381,0,0,1-.463-.061.04.04,0,0,0-.046,0,.488.488,0,0,0-.215.381,4.277,4.277,0,0,0-.04.584.135.135,0,0,1-.051.113.145.145,0,0,1-.12.032L117.857,78l.109,2.357c.444-.1,1.56-.362,1.806-.381Z" transform="translate(-93.111 -59.911)" fill="#00063c"/>
    <path id="Path_43668" data-name="Path 43668" d="M131.818,81.151a.8.8,0,0,1-.065.736c-.225.484-.551.635-.913.557a3.7,3.7,0,0,0-.53-.086l-.069.261s.54.17.505.482-.357.414-.793.37-.692-.088-.8.261a.78.78,0,0,0-.031.151,1.581,1.581,0,0,1,.74.1,2.213,2.213,0,0,0,1.27.347c.4-.065.789.08,1.217-.448s.223-2.155.33-2.464S131.818,81.151,131.818,81.151Z" transform="translate(-102.475 -63.651)" fill="#39476b"/>
    <path id="Path_43669" data-name="Path 43669" d="M132.684,81.471c-.107.309.1,1.937-.328,2.464s-.82.381-1.217.45a2.195,2.195,0,0,1-1.28-.355,1.581,1.581,0,0,0-.74-.1.6.6,0,0,1,.031-.153.355.355,0,0,1,.355-.286,2.193,2.193,0,0,0,1.23.326c.383-.055.791.08,1.217-.448.347-.427.28-1.567.3-2.157C132.5,81.242,132.737,81.309,132.684,81.471Z" transform="translate(-102.475 -63.701)" fill="#2f3a5a"/>
    <path id="Path_43670" data-name="Path 43670" d="M130.411,83.8a2.711,2.711,0,0,1-1.18-.381,1.411,1.411,0,0,0-.666-.086.135.135,0,0,1-.111-.044.143.143,0,0,1-.038-.113.9.9,0,0,1,.034-.191c.141-.44.486-.406.885-.366h.069c.275.027.61,0,.639-.244.015-.145-.273-.288-.406-.33a.143.143,0,0,1-.1-.17l.061-.261a.135.135,0,0,1,.145-.109,3.533,3.533,0,0,1,.553.088c.33.071.572-.086.763-.477s.076-.595.071-.6a.147.147,0,0,1,0-.143.137.137,0,0,1,.118-.074c.236,0,.8,0,.971.215a.259.259,0,0,1,.036.244,3.324,3.324,0,0,0-.031.608,3.538,3.538,0,0,1-.322,1.907,1.2,1.2,0,0,1-1.041.479,2.369,2.369,0,0,0-.265.021A1.1,1.1,0,0,1,130.411,83.8Zm-1.674-.763a1.388,1.388,0,0,1,.627.124,2.126,2.126,0,0,0,1.18.332,2.364,2.364,0,0,1,.3-.023.929.929,0,0,0,.828-.381,3.55,3.55,0,0,0,.259-1.716,2.963,2.963,0,0,1,.042-.69,1.264,1.264,0,0,0-.536-.093,1.169,1.169,0,0,1-.126.656.932.932,0,0,1-1.074.635c-.177-.038-.305-.057-.381-.069v.017c.191.082.515.271.481.587-.019.175-.153.572-.953.5h-.069c-.408-.032-.515-.027-.58.135Z" transform="translate(-101.906 -62.965)" fill="#00063c"/>
    <path id="Path_43671" data-name="Path 43671" d="M87.877,77.934A3.108,3.108,0,0,0,85.921,76.6a4.275,4.275,0,0,0-1.323-.168c-1.625.05-3.354.259-3.354.259l-1.081.143L80,80.253c.055,0,.606.482.664.484a31.831,31.831,0,0,0,4.99.267,3.017,3.017,0,0,0,2.359-.618Z" transform="translate(-62.722 -59.832)" fill="#6c95f8"/>
    <path id="Path_43672" data-name="Path 43672" d="M88.035,85.842a2.977,2.977,0,0,1-2.359.616,31.859,31.859,0,0,1-4.99-.265c-.057,0-.608-.477-.665-.484l.048-1.007a3.2,3.2,0,0,0,.41.3,32.1,32.1,0,0,0,4.992.267,3.021,3.021,0,0,0,2.359-.618l-.086-1.484c.055.072.1.149.151.221Z" transform="translate(-62.738 -65.287)" fill="#566ef5"/>
    <path id="Path_43673" data-name="Path 43673" d="M84.414,80.553a30.915,30.915,0,0,1-4.308-.28c-.059-.01-.124-.057-.406-.28-.1-.074-.236-.191-.278-.212a.139.139,0,0,1-.093-.141l.156-3.419a.143.143,0,0,1,.126-.133l1.081-.143c.017,0,1.754-.212,3.366-.261a4.531,4.531,0,0,1,1.367.172,3.289,3.289,0,0,1,2.04,1.4.128.128,0,0,1,.019.065l.143,2.452a.145.145,0,0,1-.036.1,3.145,3.145,0,0,1-2.467.665C84.893,80.549,84.653,80.553,84.414,80.553ZM80.168,80a32.5,32.5,0,0,0,4.943.259,3.042,3.042,0,0,0,2.218-.528l-.135-2.355a3.075,3.075,0,0,0-1.855-1.241,4.211,4.211,0,0,0-1.28-.162c-1.6.05-3.324.257-3.341.259l-.953.126-.154,3.215c.053.038.132.1.259.2S80.122,79.967,80.168,80Z" transform="translate(-62.178 -59.226)" fill="#00063c"/>
    <path id="Path_43674" data-name="Path 43674" d="M105.263,32.9a24.737,24.737,0,0,0-.275-3.661s1.058-1.823.778-2.21a1.118,1.118,0,0,0-.845-.309.191.191,0,0,0-.191.219,3.531,3.531,0,0,1-.149,1.077c-.065-.116-.229-.355-.347-.522a.242.242,0,0,0-.416.248,4.632,4.632,0,0,1,.326,1.213,6.272,6.272,0,0,0-.381,3.577c-.837,4.54-.418,1.663.013,3.814l2.206,1.188A31.194,31.194,0,0,0,105.263,32.9Z" transform="translate(-81.564 -19.602)" fill="#e8c79c"/>
    <path id="Path_43675" data-name="Path 43675" d="M105.422,37.062a.141.141,0,0,1-.069-.017l-2.2-1.188a.135.135,0,0,1-.072-.1c-.153-.763-.294-.826-.347-.854-.212-.107-.212-.107.071-1.6.067-.358.153-.809.257-1.379a6.358,6.358,0,0,1,.368-3.61,4.4,4.4,0,0,0-.305-1.116.384.384,0,1,1,.66-.395l.172.246a2.315,2.315,0,0,0,.067-.7.339.339,0,0,1,.084-.273.353.353,0,0,1,.256-.109,1.233,1.233,0,0,1,.953.368c.315.437-.534,1.958-.746,2.319a24.46,24.46,0,0,1,.271,3.623,29.892,29.892,0,0,1,.725,4.655.145.145,0,0,1-.076.111A.16.16,0,0,1,105.422,37.062Zm-2.078-1.424,1.943,1.047a38.742,38.742,0,0,0-.732-4.361.142.142,0,0,1,0-.04,24.673,24.673,0,0,0-.275-3.623.137.137,0,0,1,.017-.092c.481-.824.921-1.869.786-2.056a1.066,1.066,0,0,0-.732-.25c-.015,0-.025,0-.034.015a.053.053,0,0,0-.011.042,3.719,3.719,0,0,1-.154,1.144.139.139,0,0,1-.12.1.145.145,0,0,1-.141-.071c-.048-.086-.17-.267-.339-.511a.1.1,0,0,0-.137-.027.1.1,0,0,0-.034.128,4.72,4.72,0,0,1,.339,1.259.13.13,0,0,1-.021.1,6.082,6.082,0,0,0-.351,3.474.168.168,0,0,1,0,.053c-.107.572-.191,1.041-.263,1.405a12.537,12.537,0,0,0-.217,1.295C103.029,34.747,103.187,34.9,103.344,35.638Z" transform="translate(-80.995 -18.995)" fill="#00063c"/>
    <path id="Path_43676" data-name="Path 43676" d="M104.754,73.024l-.33-4.481-2.633-.343-.231,3.387" transform="translate(-80.171 -53.172)" fill="#6c95f8"/>
    <path id="Path_43677" data-name="Path 43677" d="M104.145,72.557a.143.143,0,0,1-.141-.133l-.32-4.363-2.368-.318-.219,3.242a.143.143,0,1,1-.284-.019l.225-3.385a.139.139,0,0,1,.051-.1.151.151,0,0,1,.111-.032l2.633.345a.143.143,0,0,1,.124.132l.328,4.479a.143.143,0,0,1-.132.154Z" transform="translate(-79.564 -52.561)" fill="#00063c"/>
    <path id="Path_43678" data-name="Path 43678" d="M62.609,78.94l-4.4.492.7,3.779,4.262-.223Z" transform="translate(-45.087 -61.864)" fill="#fc3133"/>
    <path id="Path_43679" data-name="Path 43679" d="M63.182,82.988l-4.26.223-.7-3.781h0l.421,2.273,4.264-.225-.355-2.53.063-.008Z" transform="translate(-45.095 -61.864)" fill="#e51b3a"/>
    <path id="Path_43680" data-name="Path 43680" d="M58.31,82.744a.143.143,0,0,1-.141-.116l-.7-3.781a.143.143,0,0,1,.025-.111.137.137,0,0,1,.1-.057l4.4-.492a.145.145,0,0,1,.158.122l.572,4.048a.153.153,0,0,1-.032.111.143.143,0,0,1-.1.051l-4.262.225Zm-.532-3.8.65,3.507,3.982-.21-.524-3.757Z" transform="translate(-44.485 -61.254)" fill="#00063c"/>
    <rect id="Rectangle_32981" data-name="Rectangle 32981" width="16.25" height="1.312" transform="translate(13.998 21.347)" fill="#bd8d5a"/>
    <path id="Path_43681" data-name="Path 43681" d="M78.44,102.218H62.193a.143.143,0,0,1-.143-.143v-1.312a.143.143,0,0,1,.143-.143H78.44a.145.145,0,0,1,.143.143v1.312A.145.145,0,0,1,78.44,102.218Zm-16.107-.286H78.3v-1.026H62.336Z" transform="translate(-48.195 -79.41)" fill="#00063c"/>
    <circle id="Ellipse_1492" data-name="Ellipse 1492" cx="1.846" cy="1.846" r="1.846" transform="translate(21.063 6.87) rotate(-9.22)" fill="#39476b"/>
    <path id="Path_43682" data-name="Path 43682" d="M106.062,25.663a1.846,1.846,0,0,1-3.432.934,1.943,1.943,0,0,0,.236.015,1.846,1.846,0,0,0,1.59-2.782A1.85,1.85,0,0,1,106.062,25.663Z" transform="translate(-81.037 -17.263)" fill="#2f3a5a"/>
    <path id="Path_43683" data-name="Path 43683" d="M102.543,26.972a1.991,1.991,0,1,1,1.989-1.991A1.991,1.991,0,0,1,102.543,26.972Zm0-3.694a1.7,1.7,0,1,0,1.7,1.7A1.7,1.7,0,0,0,102.543,23.278Z" transform="translate(-79.353 -16.583)" fill="#00063c"/>
    <circle id="Ellipse_1493" data-name="Ellipse 1493" cx="0.635" cy="0.635" r="0.635" transform="translate(22.452 7.871) rotate(-9.22)" fill="#2f3a5a"/>
    <path id="Path_43684" data-name="Path 43684" d="M107.633,30.907a.778.778,0,1,1,.763-.778.778.778,0,0,1-.763.778Zm0-1.27a.492.492,0,1,0,.492.492A.492.492,0,0,0,107.633,29.637Z" transform="translate(-84.444 -21.731)" fill="#00063c"/>
    <path id="Path_43685" data-name="Path 43685" d="M129.427,142.631h-4.576a.191.191,0,1,1,0-.381h4.576a.191.191,0,0,1,0,.381Z" transform="translate(-98.866 -113.102)" fill="#00063c"/>
    <path id="Path_43686" data-name="Path 43686" d="M47.557,142.631H30.531a.191.191,0,1,1,0-.381H47.557a.191.191,0,1,1,0,.381Z" transform="translate(-22.531 -113.102)" fill="#00063c"/>
  </g>
</svg>
