<svg xmlns="http://www.w3.org/2000/svg" width="24" height="24" viewBox="0 0 24 24">
  <g id="Folder" transform="translate(-0.429 0.32)">
    <path id="Folder-2" data-name="Folder" d="M7.475,24A7.532,7.532,0,0,1,2,22a7.53,7.53,0,0,1-2-5.476V7.475A8.408,8.408,0,0,1,1.6,1.913,6.179,6.179,0,0,1,6.544,0H8.861a3.529,3.529,0,0,1,2.812,1.407l1.058,1.409a1.794,1.794,0,0,0,1.422.713h3.281c4.479,0,6.564,2.3,6.564,7.235l-.031,5.762a7.536,7.536,0,0,1-2,5.476A7.521,7.521,0,0,1,16.5,24ZM1.74,7.475v9.052a5.767,5.767,0,0,0,1.488,4.244,5.771,5.771,0,0,0,4.247,1.487H16.5a5.754,5.754,0,0,0,4.239-1.489,5.779,5.779,0,0,0,1.486-4.248l.032-5.761c0-2.025-.349-3.367-1.1-4.224s-1.939-1.265-3.729-1.265H14.152a3.543,3.543,0,0,1-2.81-1.407l-1.059-1.41a1.783,1.783,0,0,0-1.421-.712H6.544C3.176,1.742,1.74,3.456,1.74,7.475Zm4.676,8.449A.871.871,0,0,1,6.3,14.19l.118-.009H17.542a.871.871,0,0,1,.118,1.734l-.118.008Z" transform="translate(0.429 -0.32)" fill="#72809d"/>
  </g>
</svg>
