<svg xmlns="http://www.w3.org/2000/svg" width="22.701" height="20.591" viewBox="0 0 22.701 20.591">
  <g id="Group_172834" data-name="Group 172834" transform="translate(-100 -4)">
    <g id="heart_2_" data-name="heart(2)" transform="translate(100 4)">
      <path id="Path_72" data-name="Path 72" d="M16.083,22.543a6.546,6.546,0,0,0-3.007.721,6.669,6.669,0,0,0-1.726,1.272,6.67,6.67,0,0,0-1.726-1.272,6.547,6.547,0,0,0-3.007-.721A6.625,6.625,0,0,0,0,29.161c0,2.585,1.365,5.33,4.057,8.159a39.231,39.231,0,0,0,6.912,5.568l.381.246.381-.246a39.23,39.23,0,0,0,6.912-5.568c2.692-2.829,4.057-5.574,4.057-8.159A6.625,6.625,0,0,0,16.083,22.543Zm1.544,13.809a37.131,37.131,0,0,1-6.276,5.107,37.131,37.131,0,0,1-6.276-5.107C2.639,33.792,1.4,31.373,1.4,29.161a5.214,5.214,0,0,1,9.385-3.128l.561.747.561-.747A5.214,5.214,0,0,1,21.3,29.161C21.3,31.373,20.062,33.792,17.627,36.352Z" transform="translate(0 -22.543)" fill="#f85e60"/>
    </g>
  </g>
</svg>
