<svg id="Layer_2" data-name="Layer 2" xmlns="http://www.w3.org/2000/svg" width="23.198" height="22.77" viewBox="0 0 23.198 22.77">
  <g id="Layer_1" data-name="Layer 1" transform="translate(0 0)">
    <g id="home">
      <path id="Path_1" data-name="Path 1" d="M1,12.593a.984.984,0,0,1-.7-1.669L10.928.3a.988.988,0,0,1,.685-.3h0a.988.988,0,0,1,.7.287L22.935,10.913a.985.985,0,0,1-1.393,1.393L11.613,2.361,1.7,12.314A.984.984,0,0,1,1,12.593Z" transform="translate(-0.025 0)" fill="#72809d"/>
      <path id="Path_2" data-name="Path 2" d="M20.6,34.942H11.112A4.128,4.128,0,0,1,7,30.813v-9.76a.984.984,0,0,1,1.968,0v9.76a2.161,2.161,0,0,0,2.161,2.161h9.484a2.161,2.161,0,0,0,2.129-2.161v-9.76a.984.984,0,0,1,1.968,0v9.76A4.128,4.128,0,0,1,20.6,34.942Z" transform="translate(-4.255 -12.172)" fill="#72809d"/>
      <path id="Path_3" data-name="Path 3" d="M26.493,37.428H20.984A.98.98,0,0,1,20,36.444v-2.7a3.739,3.739,0,1,1,7.477,0v2.7a.98.98,0,0,1-.984.984ZM21.968,35.46h3.542V33.749a1.771,1.771,0,0,0-3.542,0Z" transform="translate(-12.139 -18.2)" fill="#72809d"/>
    </g>
  </g>
</svg>
