<svg xmlns="http://www.w3.org/2000/svg" width="24.876" height="21.987" viewBox="0 0 24.876 21.987">
  <g id="_299061_house_icon" data-name="299061_house_icon" transform="translate(-0.686 -1029.4)">
    <rect id="Rectangle_5396" data-name="Rectangle 5396" width="3.298" height="6.596" transform="translate(18.621 1031.599)" fill="#c0392b"/>
    <path id="Path_38181" data-name="Path 38181" d="M12.894,3.031,3,12.891v9.894H22.788V12.891l-9.894-9.86Z" transform="translate(0.23 1028.602)" fill="#bdc3c7"/>
    <path id="Path_38182" data-name="Path 38182" d="M12.894,1032,3,1041.784v2.2l9.894-9.894,9.894,9.894v-2.2Z" transform="translate(0.23 0.258)" fill="#95a5a6"/>
    <g id="Group_172870" data-name="Group 172870" transform="translate(0.686 1029.4)">
      <path id="Path_38183" data-name="Path 38183" d="M13.124,1029.4.686,1041.823l1.555,1.539,10.883-10.884,10.883,10.884,1.556-1.539L13.124,1029.4Z" transform="translate(-0.686 -1029.4)" fill="#e74c3c"/>
      <path id="Path_38184" data-name="Path 38184" d="M14.4,9.2A2.2,2.2,0,1,1,12.2,7,2.2,2.2,0,0,1,14.4,9.2Z" transform="translate(0.239 0.696)" fill="#3498db"/>
      <rect id="Rectangle_5397" data-name="Rectangle 5397" width="4.397" height="6.596" transform="translate(10.239 15.391)" fill="#e67e22"/>
      <path id="Path_38185" data-name="Path 38185" d="M12.1,17.55a.55.55,0,1,1-.55-.55A.55.55,0,0,1,12.1,17.55Z" transform="translate(1.988 1.689)" fill="#d35400"/>
      <path id="Path_38186" data-name="Path 38186" d="M12.2,1036.4a2.2,2.2,0,0,0-2.2,2.2,3.2,3.2,0,0,0,.068.55,2.2,2.2,0,0,1,4.261,0,3.2,3.2,0,0,0,.068-.55A2.2,2.2,0,0,0,12.2,1036.4Z" transform="translate(0.239 -1028.704)" fill="#2980b9"/>
      <path id="Path_38187" data-name="Path 38187" d="M12.1,17.55a.55.55,0,1,1-.55-.55A.55.55,0,0,1,12.1,17.55Z" transform="translate(1.988 1.139)" fill="#f1c40f"/>
      <rect id="Rectangle_5398" data-name="Rectangle 5398" width="4.397" height="1.099" transform="translate(10.239 14.292)" fill="#d35400"/>
    </g>
  </g>
</svg>
