<svg xmlns="http://www.w3.org/2000/svg" width="26.826" height="29.599" viewBox="0 0 26.826 29.599">
  <g id="_897222_get_fit_lean_lose_weight_weight_scales_icon" data-name="897222_get fit_lean_lose_weight_weight scales_icon" transform="translate(-10.25 -7.65)">
    <path id="Path_43640" data-name="Path 43640" d="M31.441,11.174A12.041,12.041,0,0,0,23.663,8.4a12.508,12.508,0,0,0-7.779,2.774H12.809A1.777,1.777,0,0,0,11,12.983V34.691A1.777,1.777,0,0,0,12.809,36.5H34.517a1.777,1.777,0,0,0,1.809-1.809V12.983a1.777,1.777,0,0,0-1.809-1.809Z" fill="#2980ba"/>
    <path id="Path_43641" data-name="Path 43641" d="M23.422,8.4a12.2,12.2,0,0,0-7.537,2.774H12.809A1.777,1.777,0,0,0,11,12.983V34.691A1.777,1.777,0,0,0,12.809,36.5H23.422Z" fill="#3b97d3"/>
    <path id="Path_43642" data-name="Path 43642" d="M31.441,11.174A12.041,12.041,0,0,0,23.663,8.4a12.508,12.508,0,0,0-7.779,2.774H12.809A1.777,1.777,0,0,0,11,12.983V34.691A1.777,1.777,0,0,0,12.809,36.5H34.517a1.777,1.777,0,0,0,1.809-1.809V12.983a1.777,1.777,0,0,0-1.809-1.809Z" fill="none" stroke="#2c3e50" stroke-linecap="round" stroke-linejoin="round" stroke-miterlimit="10" stroke-width="1.5"/>
    <path id="Path_43643" data-name="Path 43643" d="M26.66,13.4a9.791,9.791,0,0,0-7.96,4.1l3.919,3.075,8.08-.121,3.859-3.136A9.938,9.938,0,0,0,26.66,13.4Z" transform="translate(-3.057 -1.985)" fill="#e5e5e5"/>
    <path id="Path_43644" data-name="Path 43644" d="M26.66,13.4a9.791,9.791,0,0,0-7.96,4.1l3.919,3.075,8.08-.121,3.859-3.136A9.938,9.938,0,0,0,26.66,13.4Z" transform="translate(-3.057 -1.985)" fill="none" stroke="#2c3e50" stroke-linecap="round" stroke-linejoin="round" stroke-miterlimit="10" stroke-width="1.5"/>
    <line id="Line_2547" data-name="Line 2547" y1="3.015" transform="translate(23.663 13.586)" fill="none" stroke="#2c3e50" stroke-linecap="round" stroke-linejoin="round" stroke-miterlimit="10" stroke-width="1.5"/>
    <line id="Line_2548" data-name="Line 2548" y1="14.472" transform="translate(23.663 22.028)" fill="none" stroke="#2c3e50" stroke-linecap="round" stroke-linejoin="round" stroke-miterlimit="10" stroke-width="1.5" stroke-dasharray="0 3"/>
    <circle id="Ellipse_1488" data-name="Ellipse 1488" cx="0.603" cy="0.603" r="0.603" transform="translate(23.06 17.204)" fill="none" stroke="#2c3e50" stroke-linecap="round" stroke-linejoin="round" stroke-miterlimit="10" stroke-width="1.5"/>
    <circle id="Ellipse_1489" data-name="Ellipse 1489" cx="0.603" cy="0.603" r="0.603" transform="translate(12.809 33.485)" fill="#2c3e50"/>
    <circle id="Ellipse_1490" data-name="Ellipse 1490" cx="0.603" cy="0.603" r="0.603" transform="translate(33.311 33.485)" fill="#2c3e50"/>
  </g>
</svg>
