<svg xmlns="http://www.w3.org/2000/svg" width="27.057" height="27.057" viewBox="0 0 27.057 27.057">
  <path id="_2135789_earth_language_planet_icon" data-name="2135789_earth_language_planet_icon" d="M19.529,6A13.529,13.529,0,1,0,33.057,19.529,13.527,13.527,0,0,0,19.529,6ZM17.781,7.542a18.889,18.889,0,0,0-3.041,5.4,18.082,18.082,0,0,1-4.086-1.656A12.082,12.082,0,0,1,17.781,7.542Zm-7.733,4.448a18.915,18.915,0,0,0,4.4,1.813,19.279,19.279,0,0,0-.86,5.265H7.423A12.053,12.053,0,0,1,10.048,11.991ZM7.423,19.983h6.164a19.245,19.245,0,0,0,.86,5.265,19.152,19.152,0,0,0-4.4,1.813A12.026,12.026,0,0,1,7.423,19.983Zm3.231,7.787a18.491,18.491,0,0,1,4.086-1.656,19.076,19.076,0,0,0,3.041,5.4A12.052,12.052,0,0,1,10.654,27.77Zm8.42,3.858A18.331,18.331,0,0,1,15.632,25.9a18.4,18.4,0,0,1,3.442-.411Zm0-7.051a19.4,19.4,0,0,0-3.739.455,18.328,18.328,0,0,1-.833-5.049h4.573Zm0-5.5H14.5a18.328,18.328,0,0,1,.833-5.049,18.937,18.937,0,0,0,3.739.455Zm0-5.509a18.508,18.508,0,0,1-3.442-.411,18.129,18.129,0,0,1,3.442-5.731Zm12.56,5.509H25.465a19.411,19.411,0,0,0-.86-5.265,19.151,19.151,0,0,0,4.41-1.818A12.086,12.086,0,0,1,31.634,19.074ZM28.4,11.287a18.062,18.062,0,0,1-4.1,1.656,19.094,19.094,0,0,0-3.036-5.4A12.058,12.058,0,0,1,28.4,11.287ZM19.989,7.429a18.194,18.194,0,0,1,3.431,5.731,18.8,18.8,0,0,1-3.431.411Zm0,7.051a18.879,18.879,0,0,0,3.729-.455,18.221,18.221,0,0,1,.833,5.044H19.989Zm0,5.5h4.562a18.424,18.424,0,0,1-.833,5.044,19.67,19.67,0,0,0-3.729-.455Zm0,5.509a17.9,17.9,0,0,1,3.431.411,18.194,18.194,0,0,1-3.431,5.731Zm1.288,6.023a19.094,19.094,0,0,0,3.036-5.4,18.163,18.163,0,0,1,4.1,1.656A12.089,12.089,0,0,1,21.277,31.515Zm7.733-4.448a19.151,19.151,0,0,0-4.41-1.818,19.377,19.377,0,0,0,.86-5.265h6.169A12.014,12.014,0,0,1,29.01,27.067Z" transform="translate(-6 -6)"/>
</svg>
