<svg xmlns="http://www.w3.org/2000/svg" width="89.678" height="112.097" viewBox="0 0 89.678 112.097">
  <g id="_4634457_interface_loading_sand_sandwatch_waiting_icon" data-name="4634457_interface_loading_sand_sandwatch_waiting_icon" transform="translate(-4 -1)">
    <g id="Group_173429" data-name="Group 173429" transform="translate(4 1)">
      <path id="Path_38301" data-name="Path 38301" d="M89.941,8.473H7.737A3.737,3.737,0,1,1,7.737,1h82.2a3.737,3.737,0,1,1,0,7.473Z" transform="translate(-4 -1)"/>
    </g>
    <g id="Group_173430" data-name="Group 173430" transform="translate(4 105.624)">
      <path id="Path_38302" data-name="Path 38302" d="M89.941,36.473H7.737a3.737,3.737,0,1,1,0-7.473h82.2a3.737,3.737,0,1,1,0,7.473Z" transform="translate(-4 -29)"/>
    </g>
    <g id="Group_173431" data-name="Group 173431" transform="translate(13.715 1)">
      <path id="Path_38303" data-name="Path 38303" d="M73.11,113.1H10.337A3.737,3.737,0,0,1,6.6,109.371c0-.712.018-17.665,6.661-32.14A93.2,93.2,0,0,1,25.743,57.049,93.188,93.188,0,0,1,13.261,36.866C6.618,22.39,6.6,5.437,6.6,4.726A3.737,3.737,0,0,1,10.337,1H73.11a3.737,3.737,0,0,1,3.737,3.726c0,.712-.018,17.665-6.661,32.14A93.2,93.2,0,0,1,57.7,57.049,93.188,93.188,0,0,1,70.186,77.231c6.643,14.476,6.663,31.429,6.661,32.14A3.737,3.737,0,0,1,73.11,113.1Zm-58.88-7.473H69.217c-.372-5.5-1.624-16.125-5.822-25.277a80.563,80.563,0,0,0-13.337-20.69,3.743,3.743,0,0,1,0-5.218A80.565,80.565,0,0,0,63.395,33.75c4.2-9.152,5.45-19.778,5.822-25.277H14.23c.372,5.5,1.624,16.125,5.822,25.277a80.563,80.563,0,0,0,13.337,20.69,3.743,3.743,0,0,1,0,5.218,80.564,80.564,0,0,0-13.337,20.69C15.854,89.5,14.6,100.125,14.23,105.624Z" transform="translate(-6.6 -1)"/>
    </g>
    <g id="Group_173432" data-name="Group 173432" transform="translate(30.993 68.333)">
      <path id="Path_38304" data-name="Path 38304" d="M11.224,48.763s-.031-9.481,3.594-17.381S24.353,19.02,29.07,19.02,39.7,23.482,43.322,31.382s3.594,17.381,3.594,17.381H11.224Z" transform="translate(-11.224 -19.02)"/>
    </g>
  </g>
</svg>
