<svg id="Location" xmlns="http://www.w3.org/2000/svg" width="20.84" height="24.518" viewBox="0 0 20.84 24.518">
  <path id="Location-2" data-name="Location" d="M9.211,24.129l-.074-.058-.506-.341a25.447,25.447,0,0,1-5.558-5.217l-.387-.506A13.117,13.117,0,0,1,0,10.453l.006-.35A10.435,10.435,0,0,1,10.419,0h.035l.313.006A10.439,10.439,0,0,1,20.84,10.485v.126c-.062,3.236-1.638,6.582-4.56,9.675a25.953,25.953,0,0,1-4.591,3.793l-.061.051a2.07,2.07,0,0,1-2.417,0Zm.943-22.264a8.579,8.579,0,0,0-8.3,8.555l.023.438a11.262,11.262,0,0,0,2.286,6.025,23.5,23.5,0,0,0,6.01,5.644l.1.076a.221.221,0,0,0,.292,0l.1-.078A24.049,24.049,0,0,0,14.94,19c2.594-2.746,3.993-5.653,4.046-8.407l0-.407A8.578,8.578,0,0,0,10.449,1.86ZM6.45,10.6a3.97,3.97,0,1,1,3.97,3.982A3.98,3.98,0,0,1,6.45,10.6Zm1.855,0a2.115,2.115,0,1,0,2.115-2.122A2.12,2.12,0,0,0,8.3,10.6Z" transform="translate(0 0)" fill="#f85e60"/>
</svg>
