<svg id="Location_Icon" data-name="Location Icon" xmlns="http://www.w3.org/2000/svg" width="78.099" height="100.203" viewBox="0 0 78.099 100.203">
  <path id="Path" d="M0,36.991A37.087,37.087,0,1,1,65.848,60.343h0L38.131,95.781a1.327,1.327,0,0,1-2.089,0L8.46,60.536h.022A36.779,36.779,0,0,1,0,36.991Z" transform="translate(1.962 1.957)" fill="#e5ecec"/>
  <path id="Path-2" data-name="Path" d="M22.761,0A22.732,22.732,0,0,0,0,22.7v1.735H45.523V22.7A22.732,22.732,0,0,0,22.761,0Z" transform="translate(16.288 20.566)" fill="#e5ecec"/>
  <path id="Path-3" data-name="Path" d="M50.585,0H0V1.566A7.838,7.838,0,0,0,7.849,9.394H42.736a7.838,7.838,0,0,0,7.849-7.828Z" transform="translate(13.757 45.004)" fill="#becfcf"/>
  <path id="Path-4" data-name="Path" d="M0,1.957A1.962,1.962,0,1,0,3.35.573,1.962,1.962,0,0,0,0,1.957Z" transform="translate(37.112 43.046)"/>
  <path id="Path-5" data-name="Path" d="M22.761,0A22.732,22.732,0,0,0,0,22.7v1.735H45.523V22.7A22.732,22.732,0,0,0,22.761,0Z" transform="translate(16.288 20.566)" fill="#ffca40"/>
  <path id="Path-6" data-name="Path" d="M50.585,0H0V1.566A7.838,7.838,0,0,0,7.849,9.394H42.736a7.838,7.838,0,0,0,7.849-7.828Z" transform="translate(13.757 45.004)" fill="#ffca40"/>
  <path id="Shape" d="M44.7,40.191H9.811A9.81,9.81,0,0,1,0,30.405V28.84a1.962,1.962,0,0,1,1.962-1.957h.571A24.718,24.718,0,0,1,25.292,2.523V1.957a1.962,1.962,0,0,1,3.924,0v.565a24.719,24.719,0,0,1,22.759,24.36h.571a1.962,1.962,0,0,1,1.962,1.957v1.566A9.81,9.81,0,0,1,44.7,40.191ZM3.937,30.8a5.892,5.892,0,0,0,5.874,5.48H44.7a5.892,5.892,0,0,0,5.874-5.48H35.128a1.957,1.957,0,1,1,0-3.914H48.05a20.514,20.514,0,0,0-1.7-7.989,20.824,20.824,0,0,0-38.2,0,20.512,20.512,0,0,0-1.7,7.989H19.431a1.957,1.957,0,1,1,0,3.914Z" transform="translate(11.795 16.164)" fill="#c8171d"/>
  <path id="Path-7" data-name="Path" d="M0,1.957A1.962,1.962,0,1,0,3.35.573,1.962,1.962,0,0,0,0,1.957Z" transform="translate(37.112 43.046)" fill="#c8171d"/>
  <path id="Shape-2" data-name="Shape" d="M39.049,100.2a3.269,3.269,0,0,1-2.59-1.261L6.429,60.571h.14A38.957,38.957,0,0,1,39.048,0h.111A38.778,38.778,0,0,1,66.71,11.623a38.716,38.716,0,0,1,4.968,48.72h.152l-1.54,1.972c-.276.367-.564.736-.88,1.127l-.049.063L41.64,98.942A3.273,3.273,0,0,1,39.049,100.2Zm0-96.289a35.016,35.016,0,0,0-27.1,57.332l2.624,3.167h-.165L39.049,95.892,63.794,64.257h-.111l2.608-3.193a34.751,34.751,0,0,0-2.37-46.686A34.872,34.872,0,0,0,39.149,3.914Z"/>
</svg>
