<svg xmlns="http://www.w3.org/2000/svg" xmlns:xlink="http://www.w3.org/1999/xlink" width="40" height="40" viewBox="0 0 40 40">
  <defs>
    <clipPath id="clip-path">
      <circle id="Ellipse_1477" data-name="Ellipse 1477" cx="20" cy="20" r="20" transform="translate(0 0.269)"/>
    </clipPath>
    <clipPath id="clip-path-3">
      <path id="Path_43613" data-name="Path 43613" d="M-.826,91l11.235,3.1a4.891,4.891,0,0,1,2.859,2.658V100.7H-27V96.758A4.781,4.781,0,0,1-24.141,94.1L-12.906,91V85H-.826Z" transform="translate(27 -85)"/>
    </clipPath>
    <clipPath id="clip-path-6">
      <rect id="Rectangle_32975" data-name="Rectangle 32975" width="12" height="2" transform="translate(0.309 -0.242)"/>
    </clipPath>
  </defs>
  <g id="_403019_avatar_male_man_person_user_icon" data-name="403019_avatar_male_man_person_user_icon" transform="translate(0 -0.269)">
    <g id="Group_173671" data-name="Group 173671" transform="translate(0 0)">
      <circle id="Ellipse_1476" data-name="Ellipse 1476" cx="20" cy="20" r="20" transform="translate(0 0.269)" fill="#f5eee5"/>
      <g id="Group_173667" data-name="Group 173667">
        <g id="Group_173662" data-name="Group 173662" clip-path="url(#clip-path)">
          <path id="Path_43611" data-name="Path 43611" d="M-.826,91l11.235,3.1a4.891,4.891,0,0,1,2.859,2.658V100.7H-27V96.758A4.781,4.781,0,0,1-24.141,94.1L-12.906,91V85H-.826Z" transform="translate(27 -60.436)" fill="#e6c19c"/>
        </g>
        <g id="Group_173666" data-name="Group 173666" clip-path="url(#clip-path)">
          <g id="Group_173663" data-name="Group 173663" transform="translate(0 24.564)" clip-path="url(#clip-path-3)">
            <path id="Path_43612" data-name="Path 43612" d="M-27,82H13.268V98.913H-27ZM-6.866,94.081c4.43,0,8.054-2.537,8.054-5.638s-3.624-5.638-8.054-5.638-8.054,2.537-8.054,5.638S-11.3,94.081-6.866,94.081Z" transform="translate(27 -83.208)" fill="#e6a422"/>
          </g>
          <g id="Group_173664" data-name="Group 173664" transform="translate(0 24.564)" clip-path="url(#clip-path-3)">
            <path id="Path_43614" data-name="Path 43614" d="M9.68,56.066a5.671,5.671,0,0,1-2.174-.443A33.4,33.4,0,0,1,3.4,52.281c-1.128-1.208-1.691-2.738-1.852-5.356S.7,34.966.7,32.832C.7,29.811,3,25.1,9.6,25.1H9.68c6.644.04,8.9,4.711,8.9,7.732,0,2.134-.685,11.477-.846,14.094s-.725,4.107-1.852,5.356a25.853,25.853,0,0,1-4.107,3.342,4.992,4.992,0,0,1-2.094.443Z" transform="translate(10.454 -49.221)" fill="#d4b08c"/>
          </g>
          <g id="Group_173665" data-name="Group 173665" transform="translate(0 24.564)" clip-path="url(#clip-path-3)">
            <path id="Path_43616" data-name="Path 43616" d="M9.262,82C4.148,82,0,84.98,0,88.644s4.148,6.644,9.262,6.644,9.262-2.98,9.262-6.644S14.376,82,9.262,82Zm0,11.678c-4.228,0-7.651-2.416-7.651-5.436s3.423-5.436,7.651-5.436,7.651,2.416,7.651,5.436S13.49,93.678,9.262,93.678Z" transform="translate(10.872 -83.208)" fill="#d98c21"/>
          </g>
        </g>
      </g>
      <path id="Path_43618" data-name="Path 43618" d="M11.054,63.356a5.156,5.156,0,0,1-1.933-.362,25.213,25.213,0,0,1-3.664-2.537A5.529,5.529,0,0,1,3.765,56.43C3.6,54.456,3,47.45,3,45.839,3,43.544,5.054,40,11.054,40h0c6,0,8.054,3.544,8.054,5.839,0,1.611-.6,8.658-.765,10.631A5.377,5.377,0,0,1,16.651,60.5a27.6,27.6,0,0,1-3.664,2.537,6.08,6.08,0,0,1-1.933.322Z" transform="translate(9.081 -33.557)" fill="#f2cea5"/>
      <path id="Path_43619" data-name="Path 43619" d="M21.757,84.365a3.658,3.658,0,0,1-3.262.966A3.051,3.051,0,0,1,16.2,83.6Z" transform="translate(1.196 -59.6)" fill="#a3705f"/>
      <path id="Path_43620" data-name="Path 43620" d="M21.757,84.365a3.658,3.658,0,0,1-3.262.966A3.051,3.051,0,0,1,16.2,83.6Z" transform="translate(1.196 -59.6)" fill="none" stroke="#a3705f" stroke-linecap="round" stroke-linejoin="round" stroke-width="1"/>
      <g id="Group_173670" data-name="Group 173670" transform="translate(13.691 16.51)">
        <g id="Group_173668" data-name="Group 173668" transform="translate(0)" clip-path="url(#clip-path-6)">
          <circle id="Ellipse_1479" data-name="Ellipse 1479" cx="1" cy="1" r="1" transform="translate(9.309 0.758)" fill="#291f21"/>
        </g>
        <g id="Group_173669" data-name="Group 173669" transform="translate(0)" clip-path="url(#clip-path-6)">
          <ellipse id="Ellipse_1480" data-name="Ellipse 1480" cx="0.5" cy="1" rx="0.5" ry="1" transform="translate(2.309 0.758)" fill="#291f21"/>
        </g>
      </g>
      <path id="Path_43621" data-name="Path 43621" d="M8,64.208S8.443,63,10.456,63a2.935,2.935,0,0,1,2.577,1.208" transform="translate(6.094 -47.295)" fill="none" stroke="#cc9872" stroke-width="2"/>
      <path id="Path_43622" data-name="Path 43622" d="M30.275,64.208S29.832,63,27.819,63C25.886,63,25,64.208,25,65.013v3.624" transform="translate(-4.06 -47.295)" fill="none" stroke="#bb8660" stroke-width="2"/>
      <path id="Path_43623" data-name="Path 43623" d="M33.427,54.7s.322-2.537,1.49-2.9a23.92,23.92,0,0,0,.6-3.987,5.683,5.683,0,0,0-.765-3.262A4.347,4.347,0,0,0,31.7,42.9a23.35,23.35,0,0,0-3.785,2.617c-.362.4.161.725.161.725A5.788,5.788,0,0,1,28.756,46c1.007-.282,3.221-.483,3.906.523.846,1.208.846,4.752.846,5.275C33.508,52.283,33.427,54.7,33.427,54.7Z" transform="translate(-5.722 -35.289)" fill="#452228"/>
      <path id="Path_43624" data-name="Path 43624" d="M-.4,46.6c1.168.4,1.49,2.9,1.49,2.9s-.081-2.416-.081-2.9c0-.644.081-3.664,1.369-5.114,1.45-1.611,3.383-2.134,4.47-1.409.564.362,2.456,2.215,4.47.685,1.208-.926,3.423-3.02,3.423-3.02s-1.168-3.584-6.483-3.181A17.913,17.913,0,0,1,3.51,34.2a2.849,2.849,0,0,0,.362,1.53A6.311,6.311,0,0,0-.879,40.965,5,5,0,0,0-1,42.052v.564A24.6,24.6,0,0,0-.4,46.6Z" transform="translate(11.47 -30.093)" fill="#6b363e"/>
    </g>
  </g>
</svg>
