<svg id="Location_Icon" data-name="Location Icon" xmlns="http://www.w3.org/2000/svg" width="73.842" height="54.446" viewBox="0 0 73.842 54.446">
  <path id="Path" d="M30.834,0A30.8,30.8,0,0,0,0,30.754v2.351H61.669V30.754A30.8,30.8,0,0,0,30.834,0Z" transform="translate(6.087 5.963)" fill="#e5ecec"/>
  <path id="Path-2" data-name="Path" d="M68.526,0H0V2.121a10.618,10.618,0,0,0,10.633,10.6H57.893a10.618,10.618,0,0,0,10.633-10.6Z" transform="translate(2.658 39.068)" fill="#becfcf"/>
  <path id="Path-3" data-name="Path" d="M0,2.651A2.658,2.658,0,1,0,4.538.777,2.658,2.658,0,0,0,0,2.651Z" transform="translate(34.297 36.416)"/>
  <path id="Path-4" data-name="Path" d="M30.834,0A30.8,30.8,0,0,0,0,30.754v2.351H61.669V30.754A30.8,30.8,0,0,0,30.834,0Z" transform="translate(6.087 5.963)" fill="#f85e60"/>
  <path id="Path-5" data-name="Path" d="M68.526,0H0V2.121a10.618,10.618,0,0,0,10.633,10.6H57.893a10.618,10.618,0,0,0,10.633-10.6Z" transform="translate(2.658 39.068)" fill="#f85e60"/>
  <path id="Shape" d="M60.551,54.446H13.291A13.289,13.289,0,0,1,0,41.189V39.068a2.658,2.658,0,0,1,2.658-2.651h.774a33.485,33.485,0,0,1,30.831-33V2.652a2.658,2.658,0,0,1,5.316,0v.766a33.486,33.486,0,0,1,30.831,33h.774a2.658,2.658,0,0,1,2.658,2.651v2.121A13.289,13.289,0,0,1,60.551,54.446ZM5.334,41.72a7.982,7.982,0,0,0,7.957,7.423h47.26a7.982,7.982,0,0,0,7.957-7.423H47.586a2.651,2.651,0,1,1,0-5.3H65.093a27.79,27.79,0,0,0-2.3-10.823,28.21,28.21,0,0,0-51.745,0,27.787,27.787,0,0,0-2.3,10.823H26.323a2.651,2.651,0,1,1,0,5.3Z" fill="#fff"/>
  <path id="Path-6" data-name="Path" d="M0,2.651A2.658,2.658,0,1,0,4.538.777,2.658,2.658,0,0,0,0,2.651Z" transform="translate(34.297 36.416)" fill="#fff"/>
</svg>
