<svg id="Group_10310" data-name="Group 10310" xmlns="http://www.w3.org/2000/svg" width="22" height="16" viewBox="0 0 22 16">
  <path id="Vector" d="M6.395.45a.735.735,0,0,1,1.354,0l.7,1.685a.727.727,0,0,1-.158.8.734.734,0,0,1-1.2-.238l-.7-1.685A.726.726,0,0,1,6.395.45Z" fill="#f85e60"/>
  <path id="Vector-2" data-name="Vector" d="M19.072,7.627l1.694-.7a.732.732,0,0,0,.4-.394.727.727,0,0,0-.159-.8.736.736,0,0,0-.805-.154l-1.694.7a.73.73,0,0,0,.561,1.348Z" fill="#f85e60"/>
  <path id="Vector-3" data-name="Vector" d="M14.227,3.143a.735.735,0,0,0,.519-.214.729.729,0,0,0,.159-.237l.7-1.685a.728.728,0,0,0-.4-.952.735.735,0,0,0-.958.393l-.7,1.685a.727.727,0,0,0,.159.8.737.737,0,0,0,.519.214Z" fill="#f85e60"/>
  <path id="Vector-4" data-name="Vector" d="M2.928,7.627a.736.736,0,0,0,.8-.157.729.729,0,0,0-.239-1.191L1.8,5.582a.734.734,0,0,0-.966.392.727.727,0,0,0,.163.8.734.734,0,0,0,.241.157h0Z" fill="#f85e60"/>
  <path id="Vector-5" data-name="Vector" d="M17.19,10.893A6.2,6.2,0,0,0,13.555,4.5,6.253,6.253,0,0,0,6.339,6.043,6.18,6.18,0,0,0,4.81,10.893H.733a.735.735,0,0,0-.519.214.727.727,0,0,0,0,1.032.735.735,0,0,0,.519.214H21.267a.735.735,0,0,0,.519-.214.727.727,0,0,0,0-1.032.735.735,0,0,0-.519-.214Z" fill="#f85e60"/>
  <path id="Vector-6" data-name="Vector" d="M3.667,14.541a.735.735,0,0,0-.519.214.727.727,0,0,0,0,1.032A.735.735,0,0,0,3.667,16H18.333a.735.735,0,0,0,.519-.214.727.727,0,0,0,0-1.032.735.735,0,0,0-.519-.214Z" fill="#f85e60"/>
</svg>
