<svg xmlns="http://www.w3.org/2000/svg" width="23" height="23" viewBox="0 0 23 23">
  <g id="Graph" transform="translate(0.099 0.32)">
    <path id="Graph-2" data-name="Graph" d="M1.216,18.152a8.88,8.88,0,0,1-1.086-3l-.054-.389A5.927,5.927,0,0,1,0,13.891l0-.278a9.305,9.305,0,0,1,2.069-5.8,9.664,9.664,0,0,1,5.274-3.3l.294-.064L7.8,4.422A2.023,2.023,0,0,1,8.061,4.4a1.865,1.865,0,0,1,1.712,1.07,1.74,1.74,0,0,1,.179.645L10.4,12.43a.321.321,0,0,0,.114.225.328.328,0,0,0,.18.077h.071l6.41-.386q.056,0,.112,0a1.912,1.912,0,0,1,1.3.5,1.841,1.841,0,0,1,.591,1.4,9.2,9.2,0,0,1-2.295,5.485,9.558,9.558,0,0,1-5.2,3.043A9.8,9.8,0,0,1,9.608,23,9.608,9.608,0,0,1,1.216,18.152ZM7.972,6.081,7.71,6.14A7.851,7.851,0,0,0,3.481,8.762a7.616,7.616,0,0,0-1.77,4.6l-.005.282a4.368,4.368,0,0,0,.025.657l.032.234a7.174,7.174,0,0,0,.939,2.8,7.911,7.911,0,0,0,6.907,4,8.038,8.038,0,0,0,1.707-.183,7.776,7.776,0,0,0,6.16-6.959.18.18,0,0,0-.059-.134.2.2,0,0,0-.088-.046l-.051,0-6.4.385c-.049,0-.1.005-.148.005A2.058,2.058,0,0,1,9.4,13.912a1.985,1.985,0,0,1-.7-1.365L8.253,6.24c0-.01,0-.021-.023-.061a.187.187,0,0,0-.161-.11Zm3.959,3.088-.511-7.5.006-.168.025-.189a1.615,1.615,0,0,1,.5-.877A1.67,1.67,0,0,1,13.074,0h.062a10.224,10.224,0,0,1,9.852,8.441L23,8.575l0,.232a1.6,1.6,0,0,1-.4.93,1.667,1.667,0,0,1-1.145.563l-7.643.5q-.053,0-.106,0A1.772,1.772,0,0,1,11.931,9.169Zm1.7-.11a.083.083,0,0,0,.078.078l7.59-.5-.038-.207a8.52,8.52,0,0,0-7.885-6.756l-.25-.011Z" transform="translate(-0.099 -0.32)" fill="#72809d"/>
  </g>
</svg>
