<svg xmlns="http://www.w3.org/2000/svg" width="22" height="16" viewBox="0 0 22 16">
  <g id="_6351905_burger_checklist_list_menu_navigation_icon" data-name="6351905_burger_checklist_list_menu_navigation_icon" transform="translate(-3 -6)">
    <path id="Path_43606" data-name="Path 43606" d="M3,7A1,1,0,0,1,4,6H24a1,1,0,0,1,0,2H4A1,1,0,0,1,3,7Z"/>
    <path id="Path_43607" data-name="Path 43607" d="M3,14a1,1,0,0,1,1-1H17a1,1,0,0,1,0,2H4A1,1,0,0,1,3,14Z"/>
    <path id="Path_43608" data-name="Path 43608" d="M4,20a1,1,0,0,0,0,2H24a1,1,0,0,0,0-2Z"/>
  </g>
</svg>
