<svg xmlns="http://www.w3.org/2000/svg" width="29" height="29" viewBox="0 0 29 29">
  <g id="More_Icon" data-name="More Icon" transform="translate(-0.056 0.112)">
    <rect id="bound" width="29" height="29" transform="translate(0.056 -0.112)" fill="none"/>
    <path id="Combined_Shape" data-name="Combined Shape" d="M17.112,2.5A2.445,2.445,0,1,1,22,2.5a2.445,2.445,0,1,1-4.888,0Zm-8.556,0a2.445,2.445,0,1,1,4.888,0,2.445,2.445,0,1,1-4.888,0ZM0,2.5A2.473,2.473,0,0,1,2.444,0,2.472,2.472,0,0,1,4.888,2.5,2.471,2.471,0,0,1,2.444,5,2.472,2.472,0,0,1,0,2.5Z" transform="translate(3.056 12.888)"/>
  </g>
</svg>
