<svg xmlns="http://www.w3.org/2000/svg" xmlns:xlink="http://www.w3.org/1999/xlink" width="666.358" height="329.747" viewBox="0 0 666.358 329.747">
  <defs>
    <clipPath id="clip-path">
      <rect id="Rectangle_32941" data-name="Rectangle 32941" width="134.276" height="134.277" fill="none"/>
    </clipPath>
    <clipPath id="clip-path-2">
      <rect id="Rectangle_32942" data-name="Rectangle 32942" width="308.801" height="211.118" fill="none"/>
    </clipPath>
    <clipPath id="clip-path-3">
      <rect id="Rectangle_32944" data-name="Rectangle 32944" width="47.24" height="30.615" fill="none"/>
    </clipPath>
    <clipPath id="clip-path-4">
      <rect id="Rectangle_32952" data-name="Rectangle 32952" width="293.854" height="190.263" fill="none"/>
    </clipPath>
    <clipPath id="clip-path-5">
      <rect id="Rectangle_32954" data-name="Rectangle 32954" width="58.826" height="38.128" fill="none"/>
    </clipPath>
  </defs>
  <g id="Group_173587" data-name="Group 173587" transform="translate(150.954 -235.663)">
    <g id="Group_173568" data-name="Group 173568" transform="translate(130.752 326.56)" opacity="0.08">
      <g id="Group_173567" data-name="Group 173567">
        <g id="Group_173566" data-name="Group 173566" clip-path="url(#clip-path)">
          <path id="Path_43582" data-name="Path 43582" d="M2224.773,741.67a67.138,67.138,0,1,1-67.139-67.138,67.139,67.139,0,0,1,67.139,67.138" transform="translate(-2090.497 -674.532)" fill="#3b6fa3"/>
        </g>
      </g>
    </g>
    <path id="Path_43583" data-name="Path 43583" d="M2204.747,724.38a67.138,67.138,0,1,1-67.138-67.138,67.138,67.138,0,0,1,67.138,67.138" transform="translate(-1942.418 -333.012)" fill="#f0f7fc"/>
    <g id="Group_173571" data-name="Group 173571" transform="translate(-150.954 240.283)" opacity="0.31">
      <g id="Group_173570" data-name="Group 173570" transform="translate(0 0)">
        <g id="Group_173569" data-name="Group 173569" clip-path="url(#clip-path-2)">
          <path id="Path_43584" data-name="Path 43584" d="M295.554,218.72l13.248-5.632-6.818-16.036-13.248,5.632-.334-.787a2.622,2.622,0,0,0-3.439-1.387l-2.546,1.082-.188-.443a1.022,1.022,0,0,0-1.34-.54l-3.053,1.3a1.021,1.021,0,0,0-.54,1.34l.188.443-1.443.614-.188-.443a1.021,1.021,0,0,0-1.34-.54l-3.053,1.3a1.021,1.021,0,0,0-.54,1.34l.188.443-17.947,7.63a2.623,2.623,0,0,0-1.387,3.44l1.681,3.953-5.958,2.533,1.047,2.462c-14.886,6.408-31.63,13.449-47.869,13.913-6.952.2-20.443-2.375-32.679-21.844a134.445,134.445,0,0,1-8.266-15.873c-.384-.844-.756-1.747-1.15-2.7-1.895-4.6-4.043-9.811-9.057-12.341-7.163-3.613-13.56.448-18.7,3.712-.625.4-1.242.788-1.849,1.16-1.639,1-3.328,2.089-4.96,3.141-8.6,5.537-17.486,11.262-27.132,10.308-8.7-.86-16.469-6.614-20.776-15.393-8.619-17.564-7.188-35.329,4.374-54.311,10.191-16.731,26.345-31.547,40.6-44.619,2.156-1.978,4.192-3.845,6.188-5.7,4.056-3.771,8.627-8.264,11.549-13.879,3.326-6.392,3.859-13.255,1.463-18.829-2.049-4.77-6.348-8.837-12.776-12.092a61.379,61.379,0,0,0-32.911-6.593c-9.923.77-20.418,3.911-31.193,9.336-19.264,9.7-36.474,24.852-52.2,39.78L0,94.213l3.482,3.669L14.674,87.259C30.12,72.6,46.989,57.732,65.667,48.327c10.185-5.128,20.046-8.092,29.31-8.811a56.39,56.39,0,0,1,30.235,6.063c5.342,2.7,8.846,5.927,10.414,9.576,1.767,4.112,1.28,9.531-1.3,14.5-2.549,4.9-6.76,9.027-10.506,12.51-1.983,1.844-4.013,3.706-6.163,5.678-14.5,13.3-30.934,28.373-41.5,45.716-5.865,9.628-9.235,18.789-10.3,28.007a55.387,55.387,0,0,0,5.708,31.164,36.144,36.144,0,0,0,3.348,5.527A30.535,30.535,0,0,0,96.38,210.925c11.4,1.127,21.478-5.363,30.369-11.089,1.682-1.083,3.271-2.107,4.86-3.078.632-.386,1.273-.793,1.922-1.206,5.5-3.495,9.432-5.624,13.71-3.466,3.334,1.681,5.024,5.783,6.658,9.751.393.955.8,1.943,1.222,2.87a139.058,139.058,0,0,0,8.589,16.471c5.827,9.271,18.4,24.742,37.106,24.208,17.186-.491,34.406-7.729,49.7-14.314l1.056,2.484,5.958-2.533,1.724,4.055a2.622,2.622,0,0,0,3.439,1.387l17.947-7.63.188.443a1.021,1.021,0,0,0,1.34.54l3.054-1.3a1.022,1.022,0,0,0,.54-1.34l-.188-.443,1.443-.613.188.443a1.021,1.021,0,0,0,1.34.54l3.054-1.3a1.021,1.021,0,0,0,.54-1.34l-.188-.443,2.546-1.083a2.623,2.623,0,0,0,1.388-3.44Z" transform="translate(0 -34.282)" fill="#3b6fa3"/>
        </g>
      </g>
    </g>
    <path id="Path_43585" data-name="Path 43585" d="M1907.97,1255.847a1.021,1.021,0,0,0,1.34.541l3.053-1.3a1.022,1.022,0,0,0,.541-1.34l-.188-.442,2.546-1.083a2.622,2.622,0,0,0,1.387-3.439l-7.486-17.609a2.623,2.623,0,0,0-3.44-1.388l-2.546,1.083-.188-.443a1.021,1.021,0,0,0-1.34-.54l-3.054,1.3a1.022,1.022,0,0,0-.54,1.34l.188.443-1.443.614-.188-.443a1.022,1.022,0,0,0-1.34-.54l-3.054,1.3a1.022,1.022,0,0,0-.54,1.34l.188.443-17.947,7.63a2.623,2.623,0,0,0-1.387,3.44l7.487,17.609a2.622,2.622,0,0,0,3.439,1.387l17.947-7.63.188.443a1.021,1.021,0,0,0,1.34.541l3.053-1.3a1.021,1.021,0,0,0,.541-1.34l-.188-.443,1.443-.614Z" transform="translate(-1770.972 -828.223)" fill="#e2f0fe"/>
    <rect id="Rectangle_32943" data-name="Rectangle 32943" width="404.266" height="272.879" transform="translate(-6.942 268.958)" fill="none"/>
    <g id="Group_173576" data-name="Group 173576" transform="translate(97.233 396.622)" opacity="0.14">
      <g id="Group_173575" data-name="Group 173575">
        <g id="Group_173574" data-name="Group 173574" clip-path="url(#clip-path-3)">
          <path id="Path_43586" data-name="Path 43586" d="M1849.566,1225.066,1889,1208.443l-7.481-13.992-39.759,17.455,3.585,9.394Z" transform="translate(-1841.758 -1194.451)" fill="#f85e60"/>
        </g>
      </g>
    </g>
    <path id="Path_43587" data-name="Path 43587" d="M1905.724,1229.789l-2.547,1.083-.188-.443a1.021,1.021,0,0,0-1.34-.54l-3.053,1.3a1.021,1.021,0,0,0-.541,1.34l.188.443-1.443.613-.188-.443a1.022,1.022,0,0,0-1.34-.541l-3.054,1.3a1.022,1.022,0,0,0-.54,1.34l.188.443-17.947,7.63a2.623,2.623,0,0,0-1.387,3.439l7.487,17.609a2.622,2.622,0,0,0,3.439,1.387l17.947-7.63.188.443a1.022,1.022,0,0,0,1.34.541l3.053-1.3a1.022,1.022,0,0,0,.54-1.34l-.188-.442,1.443-.614.188.443a1.021,1.021,0,0,0,1.34.54l3.053-1.3a1.021,1.021,0,0,0,.54-1.34l-.188-.443,2.546-1.083a2.623,2.623,0,0,0,1.387-3.44l-7.487-17.609a2.621,2.621,0,0,0-3.439-1.388" transform="translate(-1770.972 -828.224)" fill="none"/>
    <rect id="Rectangle_32945" data-name="Rectangle 32945" width="14.395" height="17.425" transform="translate(138.526 403.739) rotate(-23.034)" fill="#f85e60"/>
    <rect id="Rectangle_32946" data-name="Rectangle 32946" width="3.574" height="2.603" transform="matrix(0.92, -0.391, 0.391, 0.92, 147.821, 400.773)" fill="#fff"/>
    <rect id="Rectangle_32947" data-name="Rectangle 32947" width="3.574" height="2.603" transform="matrix(0.92, -0.391, 0.391, 0.92, 149.521, 404.772)" fill="#fff"/>
    <rect id="Rectangle_32948" data-name="Rectangle 32948" width="3.574" height="2.603" transform="translate(151.221 408.77) rotate(-23.032)" fill="#fff"/>
    <rect id="Rectangle_32949" data-name="Rectangle 32949" width="3.574" height="2.603" transform="matrix(0.92, -0.391, 0.391, 0.92, 152.921, 412.769)" fill="#fff"/>
    <rect id="Rectangle_32950" data-name="Rectangle 32950" width="1.568" height="24.38" transform="translate(125.829 405.359) rotate(-23.033)" fill="#f85e60"/>
    <rect id="Rectangle_32951" data-name="Rectangle 32951" width="6.967" height="10.433" transform="matrix(0.92, -0.391, 0.391, 0.92, 96.662, 425.337)" fill="#f85e60"/>
    <path id="Path_43588" data-name="Path 43588" d="M75.81,163.971a36.144,36.144,0,0,1-3.348-5.527,55.387,55.387,0,0,1-5.708-31.164c1.068-9.217,4.437-18.378,10.3-28.007,10.564-17.343,27-32.417,41.5-45.716,2.15-1.972,4.18-3.834,6.163-5.678,3.746-3.483,7.956-7.61,10.506-12.51,2.584-4.965,3.071-10.385,1.3-14.5-1.568-3.649-5.072-6.871-10.414-9.576A56.39,56.39,0,0,0,95.878,5.234c-9.264.719-19.126,3.683-29.31,8.811C47.89,23.45,31.021,38.314,15.575,52.977L4.383,63.6.9,59.931,12.092,49.308c15.728-14.929,32.937-30.081,52.2-39.78C75.069,4.1,85.564.961,95.487.191A61.378,61.378,0,0,1,128.4,6.785c6.428,3.255,10.727,7.322,12.776,12.092,2.4,5.574,1.863,12.437-1.463,18.829-2.922,5.615-7.493,10.108-11.549,13.879-2,1.856-4.032,3.723-6.188,5.7-14.252,13.072-30.406,27.889-40.6,44.619C69.814,120.887,68.384,138.652,77,156.216c4.308,8.779,12.075,14.533,20.776,15.393,9.646.954,18.536-4.772,27.132-10.308,1.632-1.052,3.321-2.139,4.96-3.141.608-.372,1.224-.763,1.849-1.16,5.14-3.263,11.536-7.325,18.7-3.712,5.015,2.529,7.163,7.742,9.057,12.341.394.956.766,1.859,1.15,2.7a134.464,134.464,0,0,0,8.266,15.873c12.236,19.469,25.727,22.042,32.679,21.844,16.675-.476,33.882-7.888,49.064-14.427l2.2-.946,2,4.647-2.195.945c-15.6,6.719-33.277,14.334-50.92,14.837-18.71.534-31.279-14.937-37.106-24.208a139.06,139.06,0,0,1-8.589-16.471c-.422-.927-.828-1.915-1.222-2.87-1.634-3.967-3.324-8.07-6.658-9.751-4.279-2.158-8.207-.029-13.71,3.466-.649.412-1.29.819-1.922,1.205-1.589.971-3.177,1.994-4.86,3.078-8.891,5.726-18.968,12.217-30.369,11.089A30.535,30.535,0,0,1,75.81,163.971" transform="translate(-151.734 235.663)" fill="#f85e60"/>
    <g id="Group_173581" data-name="Group 173581" transform="translate(221.242 272.445)" opacity="0.31">
      <g id="Group_173580" data-name="Group 173580">
        <g id="Group_173579" data-name="Group 173579" clip-path="url(#clip-path-4)">
          <path id="Path_43589" data-name="Path 43589" d="M3055.864,460.813c-8.117.046-18.7-5.409-24.061-17.7-6.61-15.162-3.172-31.483.149-47.267q.38-1.808.754-3.6l.19-.916c3.779-18.264,7.687-37.154,7.75-56.17a85.912,85.912,0,0,0-6.51-33.344c-5.066-11.84-12.762-20.57-22.255-25.247-8.9-4.387-18.9-4.814-26.745-1.142-6.987,3.271-11.722,9.309-13.693,17.46-3.257,13.471-.6,27.546,1.974,41.159.33,1.747.658,3.481.969,5.2q.252,1.394.513,2.812c3.6,19.62,7.675,41.859-5.415,58.231-4.007,5.01-8.493,7.62-13.715,7.978-13.651.937-29.238-13.853-41.763-25.738a143.427,143.427,0,0,0-12.678-11.23c-22.6-16.392-42.816-21.7-61.72-16.183l-1.544-3.345-7.076,3.266-1.434-3.108a2.357,2.357,0,0,0-3.128-1.152l-18.092,8.351-.352-.763a1.22,1.22,0,0,0-1.619-.6l-17.854,8.241a1.22,1.22,0,0,0-.6,1.619l.352.763-7.842,3.62a2.356,2.356,0,0,0-1.152,3.128l2.353,5.1-17.93,8.328a2.874,2.874,0,1,0,2.409,5.219l17.939-8.308,2.384,5.164a2.357,2.357,0,0,0,3.128,1.152l7.842-3.62.352.763a1.22,1.22,0,0,0,1.619.6l17.854-8.241a1.22,1.22,0,0,0,.6-1.619l-.352-.763,18.092-8.351a2.358,2.358,0,0,0,1.153-3.128l-1.072-2.321-.363-.786,7.076-3.266-1.727-3.74c18.055-5.125,37.486.1,59.3,15.923a142.294,142.294,0,0,1,12.435,11.029c12.865,12.207,28.875,27.4,43.578,26.39,5.847-.4,11.036-3.387,15.423-8.873,13.773-17.226,9.591-40.037,5.9-60.161q-.259-1.415-.513-2.807c-.312-1.721-.641-3.46-.972-5.213-2.524-13.364-5.137-27.18-2-40.15,1.793-7.419,6.074-12.9,12.378-15.852,7.19-3.366,16.412-2.947,24.668,1.121,8.972,4.421,16.272,12.734,21.109,24.04a83.467,83.467,0,0,1,6.317,32.392c-.062,18.774-3.945,37.543-7.7,55.692l-.189.917q-.37,1.789-.752,3.593c-3.4,16.154-6.917,32.855,0,48.72a34.745,34.745,0,0,0,10.474,13.489,25.716,25.716,0,0,0,15.8,5.648Z" transform="translate(-2762.023 -272.949)" fill="#3b6fa3"/>
        </g>
      </g>
    </g>
    <path id="Path_43590" data-name="Path 43590" d="M2941.173,815.069l7.156,15.5a2.357,2.357,0,0,1-1.153,3.128l-46,21.235a2.358,2.358,0,0,1-3.129-1.152l-7.156-15.5a2.358,2.358,0,0,1,1.152-3.128l46-21.235a2.358,2.358,0,0,1,3.128,1.152" transform="translate(-2652.093 -468.386)" fill="#e2f0fe"/>
    <rect id="Rectangle_32953" data-name="Rectangle 32953" width="404.266" height="272.879" transform="translate(-6.942 268.958)" fill="none"/>
    <g id="Group_173586" data-name="Group 173586" transform="translate(234.683 340.791)" opacity="0.14">
      <g id="Group_173585" data-name="Group 173585">
        <g id="Group_173584" data-name="Group 173584" clip-path="url(#clip-path-5)">
          <path id="Path_43591" data-name="Path 43591" d="M2920.587,793.779l-54.407,24.488-4.418-13.582,19.309-14.4,36.983-10.146Z" transform="translate(-2861.761 -780.139)" fill="#f85e60"/>
        </g>
      </g>
    </g>
    <path id="Path_43592" data-name="Path 43592" d="M2938.045,813.917l-46,21.235a2.357,2.357,0,0,0-1.152,3.128l7.156,15.5a2.357,2.357,0,0,0,3.128,1.152l46-21.235a2.357,2.357,0,0,0,1.152-3.128l-7.156-15.5a2.356,2.356,0,0,0-3.128-1.152" transform="translate(-2652.093 -468.386)" fill="none"/>
    <path id="Path_43593" data-name="Path 43593" d="M2975.762,867.073l9.836,21.308A1.22,1.22,0,0,1,2985,890l-17.853,8.241a1.221,1.221,0,0,1-1.62-.6l-9.836-21.308a1.22,1.22,0,0,1,.6-1.619l17.854-8.241a1.221,1.221,0,0,1,1.62.6" transform="translate(-2708.254 -513.954)" fill="#f85e60"/>
    <path id="Path_43594" data-name="Path 43594" d="M3051.631,1019.725h0a.877.877,0,0,1-.429,1.164l-15.516,7.162a.877.877,0,0,1-1.164-.429h0a.877.877,0,0,1,.429-1.164l15.516-7.162a.877.877,0,0,1,1.164.429" transform="translate(-2776.488 -646.207)" fill="#e2f0fe"/>
    <path id="Path_43595" data-name="Path 43595" d="M3039.208,992.813h0a.877.877,0,0,1-.429,1.164l-15.516,7.162a.877.877,0,1,1-.735-1.593l15.516-7.162a.877.877,0,0,1,1.164.429" transform="translate(-2765.74 -622.922)" fill="#e2f0fe"/>
    <path id="Path_43596" data-name="Path 43596" d="M3026.785,965.9h0a.878.878,0,0,1-.429,1.164l-15.516,7.162a.877.877,0,0,1-.735-1.593l15.516-7.162a.878.878,0,0,1,1.165.429" transform="translate(-2754.991 -599.636)" fill="#e2f0fe"/>
    <path id="Path_43597" data-name="Path 43597" d="M3014.364,938.989h0a.877.877,0,0,1-.429,1.164l-15.516,7.162a.877.877,0,0,1-.736-1.593l15.516-7.162a.877.877,0,0,1,1.164.429" transform="translate(-2744.243 -576.351)" fill="#e2f0fe"/>
    <path id="Path_43598" data-name="Path 43598" d="M3001.94,912.077h0a.877.877,0,0,1-.429,1.164L2986,920.4a.877.877,0,1,1-.735-1.593l15.516-7.162a.878.878,0,0,1,1.164.429" transform="translate(-2733.494 -553.066)" fill="#e2f0fe"/>
    <path id="Path_43599" data-name="Path 43599" d="M2989.518,885.165h0a.877.877,0,0,1-.429,1.164l-15.516,7.162a.877.877,0,1,1-.735-1.593l15.516-7.162a.877.877,0,0,1,1.164.429" transform="translate(-2722.746 -529.78)" fill="#e2f0fe"/>
    <path id="Path_43600" data-name="Path 43600" d="M2783.92,1034.262l2.409,5.219-17.949,8.286a2.874,2.874,0,1,1-2.409-5.219Z" transform="translate(-2542.75 -659.226)" fill="#f85e60"/>
    <rect id="Rectangle_32955" data-name="Rectangle 32955" width="7.793" height="10.228" transform="translate(290.514 349.791) rotate(-24.778)" fill="#f85e60"/>
    <path id="Path_43601" data-name="Path 43601" d="M3322.215,320.7c19.593-6.71,40.567-1.665,64.123,15.423a143.433,143.433,0,0,1,12.678,11.23c12.524,11.884,28.111,26.675,41.763,25.738,5.222-.359,9.708-2.968,13.714-7.978,13.09-16.372,9.013-38.611,5.415-58.231q-.259-1.417-.514-2.812c-.311-1.715-.638-3.449-.968-5.2-2.571-13.613-5.231-27.688-1.974-41.159,1.971-8.151,6.706-14.189,13.692-17.46,7.844-3.672,17.841-3.245,26.745,1.142,9.493,4.677,17.189,13.408,22.254,25.247a85.893,85.893,0,0,1,6.51,33.343c-.062,19.015-3.971,37.906-7.75,56.17l-.189.917q-.371,1.793-.754,3.6c-3.32,15.784-6.758,32.105-.148,47.267,5.357,12.289,15.944,17.743,24.061,17.7l.013,2.4a25.713,25.713,0,0,1-15.8-5.648,34.749,34.749,0,0,1-10.474-13.489c-6.917-15.865-3.4-32.565,0-48.72q.379-1.8.751-3.593l.19-.917c3.754-18.148,7.638-36.918,7.7-55.692a83.454,83.454,0,0,0-6.316-32.392c-4.837-11.306-12.137-19.619-21.109-24.04-8.256-4.068-17.478-4.487-24.668-1.121-6.3,2.952-10.584,8.433-12.378,15.852-3.138,12.97-.525,26.787,2,40.15.331,1.753.659,3.492.972,5.213q.253,1.392.513,2.807c3.69,20.125,7.872,42.936-5.9,60.161-4.388,5.486-9.576,8.472-15.423,8.873-14.7,1.009-30.713-14.183-43.578-26.391a142.4,142.4,0,0,0-12.436-11.029c-22.877-16.6-43.137-21.534-61.938-15.1Z" transform="translate(-3025.483 29.929)" fill="#f85e60"/>
    <path id="Path_43602" data-name="Path 43602" d="M2523.968,881.179a4.343,4.343,0,0,1,2.314-2.314,4.415,4.415,0,0,1,3.4,0,4.34,4.34,0,0,1,2.314,2.314,4.415,4.415,0,0,1,0,3.4,4.338,4.338,0,0,1-2.314,2.314,4.413,4.413,0,0,1-3.4,0,4.341,4.341,0,0,1-2.314-2.314,4.412,4.412,0,0,1,0-3.4m10.353-68.381a9.114,9.114,0,0,0-1.421-5.576q-1.422-1.858-4.92-1.859t-4.92,1.859a9.107,9.107,0,0,0-1.421,5.576v22.346l3.28,33.279v-.087a3.047,3.047,0,0,0,1.137,2.274,3.345,3.345,0,0,0,3.827.022,2.962,2.962,0,0,0,1.115-2.208l3.323-33.279Z" transform="translate(-2332.789 -461.174)" fill="#f85e60"/>
    <rect id="Rectangle_32956" data-name="Rectangle 32956" width="404.266" height="272.879" transform="translate(-6.942 268.958)" fill="none"/>
    <rect id="Rectangle_32959" data-name="Rectangle 32959" width="404.266" height="272.88" transform="translate(-6.942 268.958)" fill="none"/>
    <rect id="Rectangle_32960" data-name="Rectangle 32960" width="666.358" height="329.747" transform="translate(-150.954 235.663)" fill="none"/>
  </g>
</svg>
