<svg id="Group_173590" data-name="Group 173590" xmlns="http://www.w3.org/2000/svg" xmlns:xlink="http://www.w3.org/1999/xlink" width="117.174" height="117.279" viewBox="0 0 117.174 117.279">
  <defs>
    <clipPath id="clip-path">
      <rect id="Rectangle_32961" data-name="Rectangle 32961" width="117.174" height="117.279" fill="#72809d"/>
    </clipPath>
  </defs>
  <g id="Group_173589" data-name="Group 173589" clip-path="url(#clip-path)">
    <path id="Path_43603" data-name="Path 43603" d="M23.415,65.172c0-6.4-.082-12.69.03-18.975.071-4,.3-8.006.732-11.979.153-1.409-.552-2-1.3-2.749Q13.214,21.779,3.534,12.1a26.255,26.255,0,0,1-2.071-2.18,5.855,5.855,0,0,1,.4-8.163,5.854,5.854,0,0,1,7.967-.3,22.133,22.133,0,0,1,1.994,1.87q50.907,50.894,101.808,101.8c.645.645,1.316,1.271,1.9,1.971,2.269,2.727,2.177,6.079-.2,8.383-2.4,2.328-5.658,2.336-8.391,0-.554-.473-1.052-1.012-1.568-1.528-4.065-4.063-8.184-8.076-12.164-12.221a5.988,5.988,0,0,0-4.764-2.017c-22.626.071-45.253-.055-67.879.112-6.611.049-9.282-2.464-9-8.926.153-3.459-.028-6.94.253-10.384.561-6.861,4.218-11.672,10.329-14.7.323-.159.64-.33,1.26-.65m.317,22.216H77.6L35.508,45.218v2.671c0,6.934-.032,13.868.008,20.8.023,4.039-1.586,7.4-6.571,7.712a5.383,5.383,0,0,0-5.178,5.139c-.181,1.88-.034,3.79-.034,5.846" transform="translate(0 -0.02)" fill="#72809d"/>
    <path id="Path_43604" data-name="Path 43604" d="M96.68,6.356c1.24.362,2.548.726,3.845,1.124A35.025,35.025,0,0,1,125.444,40.8c.046,5.655.025,11.31,0,16.965a9.578,9.578,0,0,1-.3,2.7,5.915,5.915,0,0,1-11.455-.525,20.2,20.2,0,0,1-.32-3.8c-.06-5.563.1-11.134-.137-16.688A22.672,22.672,0,0,0,91.9,18.08a23.1,23.1,0,0,0-12.182,2.39,6.176,6.176,0,0,1-4.985.763,5.8,5.8,0,0,1-4.267-4.852c-.375-2.591.476-4.83,2.833-6.014,2.588-1.3,5.36-2.24,8.072-3.284a22.455,22.455,0,0,1,2.511-.668C85.291,1.928,87.125.086,90.147,0,93.2-.081,95.223,1.86,96.68,6.356" transform="translate(-31.693 0)" fill="#72809d"/>
    <path id="Path_43605" data-name="Path 43605" d="M96.871,203.31c-1.823,0-3.65.071-5.47-.015-3.8-.178-6.36-2.725-6.3-6.171.058-3.328,2.574-5.825,6.246-5.938,3.734-.115,7.479-.123,11.212.006a6,6,0,0,1,6.158,6.016c.013,3.352-2.453,5.864-6.1,6.075-1.908.11-3.828.019-5.742.019v.008" transform="translate(-38.324 -86.058)" fill="#72809d"/>
  </g>
</svg>
