<svg xmlns="http://www.w3.org/2000/svg" width="20.729" height="24.152" viewBox="0 0 20.729 24.152">
  <g id="Group_173783" data-name="Group 173783" transform="translate(1385.634 528.935)">
    <path id="Path_425" d="M10.357,19.429h0a51.19,51.19,0,0,1-5.464-.293A6,6,0,0,1,1.13,17.3,4.874,4.874,0,0,1,0,14.083V13.8a4.907,4.907,0,0,1,.814-2.469l.081-.1a4.639,4.639,0,0,0,1.133-2.2L2.012,9.1l0-.646.014-.719c.011-.316.028-.6.052-.873A7.211,7.211,0,0,1,4.8,1.964,8.751,8.751,0,0,1,10.321,0h.088a8.754,8.754,0,0,1,5.523,1.964,7.251,7.251,0,0,1,2.728,4.9c.021.239.031.458.034.781V8.46c0,.132,0,.251.005.372l.011.237.055.226a4.7,4.7,0,0,0,.886,1.728l.183.214.076.1a4.857,4.857,0,0,1,.819,2.505v.487a4.884,4.884,0,0,1-1.178,3.015,5.86,5.86,0,0,1-3.715,1.8A51.327,51.327,0,0,1,10.357,19.429Zm-8.18-7.112h0l-.095.155A3.222,3.222,0,0,0,1.7,13.607l-.021.23V14.1a3.192,3.192,0,0,0,.7,2.072,4.274,4.274,0,0,0,2.68,1.287,49.764,49.764,0,0,0,5.3.284,49.98,49.98,0,0,0,5.313-.285A4.2,4.2,0,0,0,18.3,16.214a3.2,3.2,0,0,0,.747-2.142v-.2a3.1,3.1,0,0,0-.53-1.6l.019.031-.168-.2A6.37,6.37,0,0,1,17.134,9.7l-.079-.334-.015-.112c-.013-.177-.02-.322-.023-.484l0-1.092c0-.275-.01-.46-.026-.661-.284-2.942-3.235-5.335-6.578-5.335h-.088c-3.345,0-6.291,2.39-6.566,5.328-.013.146-.024.308-.035.51L3.7,8.086,3.693,9.2l-.018.172a6.322,6.322,0,0,1-1.488,2.939h0Z" transform="translate(-1385.634 -528.935)" fill="#72809d"/>
    <path id="Path_421" d="M5.578.314a.841.841,0,1,1,1.31,1.056,4.041,4.041,0,0,1-.727.7,4.293,4.293,0,0,1-3.135.87A4.267,4.267,0,0,1,.183,1.368.841.841,0,1,1,1.5.318a2.588,2.588,0,0,0,1.724.954A2.625,2.625,0,0,0,5.143.734,2.4,2.4,0,0,0,5.578.314Z" transform="translate(-1378.849 -507.758)" fill="#72809d"/>
  </g>
</svg>
