<svg id="icon-139-package" xmlns="http://www.w3.org/2000/svg" width="129.122" height="123.957" viewBox="0 0 129.122 123.957">
  <path id="package" d="M81.473,50.484h46.484v72.308H9.165V50.484H55.649V86.638H81.473V50.484ZM60.814,9.165H32.923l-22.6,36.154H55.649L60.814,9.165Zm15.495,0H104.2l22.6,36.154H81.473L76.308,9.165ZM4,47.9V45.319L29.824,4H107.3l25.824,41.319v82.638H4V47.9ZM65.978,9.165,60.814,45.319H76.308L71.143,9.165ZM60.814,50.484V81.473H76.308V50.484ZM14.33,91.8v5.165H50.484V91.8Zm0,20.659v5.165H50.484v-5.165Zm0-10.33V107.3H40.154v-5.165Z" transform="translate(-4 -4)" fill="#72809d" fill-rule="evenodd"/>
</svg>
