<svg xmlns="http://www.w3.org/2000/svg" width="13.5" height="22" viewBox="0 0 13.5 22">
  <path id="Combined_Shape" data-name="Combined Shape" d="M10.75,22h-8A2.753,2.753,0,0,1,0,19.25V2.75A2.754,2.754,0,0,1,2.75,0h8A2.754,2.754,0,0,1,13.5,2.75v16.5A2.753,2.753,0,0,1,10.75,22Zm-8-20.5A1.252,1.252,0,0,0,1.5,2.75v16.5A1.252,1.252,0,0,0,2.75,20.5h8A1.252,1.252,0,0,0,12,19.25V2.75A1.252,1.252,0,0,0,10.75,1.5h-1V1.25a.5.5,0,0,0-.5-.5h-5a.5.5,0,0,0-.5.5V1.5Zm6.5,1.25h-5a.5.5,0,0,1-.5-.5V1.5h6v.75A.5.5,0,0,1,9.25,2.75Z" fill="#b5b5b5"/>
</svg>
