<svg xmlns="http://www.w3.org/2000/svg" width="25" height="25" viewBox="0 0 25 25">
  <g id="_172477_question_help_icon" data-name="172477_question_help_icon" transform="translate(0.586 0.586)">
    <circle id="Ellipse_1474" data-name="Ellipse 1474" cx="11.5" cy="11.5" r="11.5" transform="translate(0.414 0.414)" fill="none" stroke="#f85e60" stroke-linecap="round" stroke-miterlimit="10" stroke-width="2"/>
    <rect id="Rectangle_32972" data-name="Rectangle 32972" width="24" height="24" transform="translate(0.414 0.414)" fill="none"/>
    <g id="Group_173658" data-name="Group 173658" transform="translate(9.131 6.16)">
      <path id="Path_43609" data-name="Path 43609" d="M21,21.324V20.6a2.341,2.341,0,0,1,.529-1.59l1.184-1.625a2.972,2.972,0,0,0,.829-1.855,1.586,1.586,0,0,0-1.713-1.643,1.808,1.808,0,0,0-1.837,1.678.155.155,0,0,1-.195.141l-1.113-.195a.156.156,0,0,1-.142-.195,3.163,3.163,0,0,1,3.322-2.809,2.967,2.967,0,0,1,3.2,3,3.678,3.678,0,0,1-.9,2.3l-1.184,1.625a1.821,1.821,0,0,0-.46,1.324v.565a.166.166,0,0,1-.176.176H21.175A.164.164,0,0,1,21,21.324Zm-.088,1.7a.167.167,0,0,1,.177-.176H22.43a.167.167,0,0,1,.176.176v1.519a.166.166,0,0,1-.176.176H21.088a.166.166,0,0,1-.177-.176Z" transform="translate(-18.539 -12.508)" fill="#f85e60"/>
    </g>
  </g>
</svg>
