<svg xmlns="http://www.w3.org/2000/svg" width="28.994" height="37.113" viewBox="0 0 28.994 37.113">
  <path id="_7429358_food_delivery_service_take_away_restaurant_icon" data-name="7429358_food_delivery_service_take away_restaurant_icon" d="M30.172,29.092A8.7,8.7,0,0,0,22.078,20.9v-.61a.58.58,0,0,0-1.16,0V20.9a8.7,8.7,0,0,0-8.094,8.188,1.735,1.735,0,0,0,.556,3.38H29.617a1.735,1.735,0,0,0,.556-3.38ZM21.5,22.034a7.543,7.543,0,0,1,7.509,6.959H13.989A7.543,7.543,0,0,1,21.5,22.034Zm8.118,9.278H13.38a.58.58,0,1,1,0-1.16H29.617a.58.58,0,1,1,0,1.16Zm4.242-19.387A2.883,2.883,0,0,0,30.97,9.277H27.877V6.549a6.488,6.488,0,0,0-5.3-6.461,6.388,6.388,0,0,0-7.456,6.29v2.9H12.026A2.881,2.881,0,0,0,9.138,11.92L7,34.212c0,2.9,1.745,2.9,2.9,2.9H33.1c1.155,0,2.9,0,2.9-2.955ZM16.279,6.378a5.226,5.226,0,0,1,6.005-5.161,5.33,5.33,0,0,1,4.432,5.329V9.277H16.279ZM33.1,35.952H9.9c-1.158,0-1.74,0-1.743-1.684l2.136-22.242a1.73,1.73,0,0,1,1.733-1.589H15.12v1.74a.58.58,0,1,0,1.16,0v-1.74H26.717v1.74a.58.58,0,1,0,1.16,0v-1.74H30.97A1.731,1.731,0,0,1,32.7,12.031l2.133,22.181C34.837,35.952,34.255,35.952,33.1,35.952Z" transform="translate(-7 0.002)" fill="#f85e60"/>
</svg>
