<svg xmlns="http://www.w3.org/2000/svg" xmlns:xlink="http://www.w3.org/1999/xlink" width="60" height="60" viewBox="0 0 60 60">
  <defs>
    <filter id="Rectangle" x="0" y="0" width="60" height="60" filterUnits="userSpaceOnUse">
      <feOffset dy="4" input="SourceAlpha"/>
      <feGaussianBlur stdDeviation="4" result="blur"/>
      <feFlood flood-opacity="0.239"/>
      <feComposite operator="in" in2="blur"/>
      <feComposite in="SourceGraphic"/>
    </filter>
  </defs>
  <g id="Restaurant_Location" data-name="Restaurant Location" transform="translate(11.605 7.694)">
    <g transform="matrix(1, 0, 0, 1, -11.6, -7.69)" filter="url(#Rectangle)">
      <rect id="Rectangle-2" data-name="Rectangle" width="36" height="36" rx="16" transform="translate(12 8)" fill="#c8171d"/>
    </g>
    <g id="Restaurant_Icon" data-name="Restaurant Icon" transform="translate(10.096 9.087)">
      <rect id="bound" width="17" height="17" transform="translate(0.299 0.219)" fill="none"/>
      <path id="Combined_Shape" data-name="Combined Shape" d="M11.524,13.512,7.754,9.341A.8.8,0,0,1,8.881,8.214l4.171,3.77a.469.469,0,0,1,.04.038,1.081,1.081,0,0,1,0,1.53.469.469,0,0,1-.04.038,1.082,1.082,0,0,1-1.528-.078ZM.994,13.59l-.04-.038a1.083,1.083,0,0,1,0-1.53l.04-.038,4.171-3.77A.8.8,0,0,1,6.293,9.341L2.522,13.512a1.083,1.083,0,0,1-1.528.078Zm-.105-9.3A3.034,3.034,0,0,1,.889,0L6.253,5.364,4.107,7.51ZM8.381,6.275a2.654,2.654,0,0,1,0-3.754L10.795.107l.537.536L9.157,3.3a.419.419,0,0,0,.59.59L12.4,1.715l.537.537L10.766,4.909a.419.419,0,0,0,.59.59l2.657-2.174.537.537L12.136,6.275a2.653,2.653,0,0,1-3.754,0Z" transform="translate(1.279 2.532)" fill="#fff"/>
    </g>
  </g>
</svg>
