<svg xmlns="http://www.w3.org/2000/svg" width="22" height="22" viewBox="0 0 22 22">
  <g id="Search" transform="translate(-0.124 -0.449)">
    <path id="Search-2" data-name="Search" d="M20.7,21.844l-.091-.077-3.44-3.355a10.672,10.672,0,0,1-6.6,2.266A10.47,10.47,0,0,1,0,10.34,10.47,10.47,0,0,1,10.572,0,10.47,10.47,0,0,1,21.145,10.34a10.176,10.176,0,0,1-2.784,6.984l3.4,3.316a.785.785,0,0,1,0,1.127.829.829,0,0,1-1.06.078ZM1.629,10.34a8.857,8.857,0,0,0,8.944,8.747,8.857,8.857,0,0,0,8.945-8.747,8.857,8.857,0,0,0-8.945-8.747A8.857,8.857,0,0,0,1.629,10.34Z" transform="translate(0.124 0.449)" fill="#72809d"/>
  </g>
</svg>
