<svg id="Group_173565" data-name="Group 173565" xmlns="http://www.w3.org/2000/svg" xmlns:xlink="http://www.w3.org/1999/xlink" width="168.906" height="171.392" viewBox="0 0 168.906 171.392">
  <defs>
    <clipPath id="clip-path">
      <rect id="Rectangle_32940" data-name="Rectangle 32940" width="168.906" height="171.392" fill="none"/>
    </clipPath>
  </defs>
  <g id="Group_173564" data-name="Group 173564" clip-path="url(#clip-path)">
    <path id="Path_43559" data-name="Path 43559" d="M87.329,294.2a64.649,64.649,0,0,0-8.4,5.2,54.179,54.179,0,0,0,12.689,9.621,55.523,55.523,0,0,1-1.033-11.031c.006-.417.029-.828.041-1.244a8.2,8.2,0,0,1-3.292-2.541" transform="translate(-55.816 -208.059)" fill="#f85e60"/>
    <path id="Path_43560" data-name="Path 43560" d="M49.978,196.834l-12.6.007a8.152,8.152,0,0,1-7.371,6.342,53.446,53.446,0,0,0,11.567,24.309,69.765,69.765,0,0,1,9.528-5.913,7.781,7.781,0,0,1,2.153-6.893,71.2,71.2,0,0,1-3.276-17.852" transform="translate(-21.221 -139.203)" fill="#f85e60"/>
    <path id="Path_43561" data-name="Path 43561" d="M114.978,212.494a8.085,8.085,0,0,1,1.978-.335,54.747,54.747,0,0,1,8.059-15.349l-12.822.007a67.323,67.323,0,0,0,2.785,15.677" transform="translate(-79.344 -139.186)" fill="#f85e60"/>
    <path id="Path_43562" data-name="Path 43562" d="M199.2,270.975a32.209,32.209,0,0,0-1.963,10.756,32.578,32.578,0,0,0,1.963,11.31Z" transform="translate(-139.486 -191.636)" fill="#f85e60"/>
    <path id="Path_43563" data-name="Path 43563" d="M72.521,19.089A66.593,66.593,0,0,0,85.44,27.107a70.426,70.426,0,0,1,18.507-25.6,53.924,53.924,0,0,0-31.426,17.58" transform="translate(-51.288 -1.067)" fill="#f85e60"/>
    <path id="Path_43564" data-name="Path 43564" d="M111.751,129.595l16.327-.009a55.464,55.464,0,0,1,10.666-9.083v-8.026a70.641,70.641,0,0,1-23.28-4.938,67.451,67.451,0,0,0-3.712,22.056" transform="translate(-79.032 -76.053)" fill="#f85e60"/>
    <path id="Path_43565" data-name="Path 43565" d="M27.789,98.854a8.151,8.151,0,0,1,7.809,5.875l12.641-.008a71.4,71.4,0,0,1,4.037-23.685,70.665,70.665,0,0,1-14.02-8.669A53.335,53.335,0,0,0,27.725,98.861Z" transform="translate(-19.607 -51.179)" fill="#f85e60"/>
    <path id="Path_43566" data-name="Path 43566" d="M239.425,308.519a53.966,53.966,0,0,0,31-16.388,65.408,65.408,0,0,0-13.258-7.2,69.448,69.448,0,0,1-17.743,23.591" transform="translate(-169.324 -201.504)" fill="#f85e60"/>
    <path id="Path_43567" data-name="Path 43567" d="M305.387,219.961a69.6,69.6,0,0,1,14.388,7.876,53.586,53.586,0,0,0,9.994-19.516,32.387,32.387,0,0,0-19.7-9.928,70.8,70.8,0,0,1-4.685,21.568" transform="translate(-215.973 -140.306)" fill="#f85e60"/>
    <path id="Path_43568" data-name="Path 43568" d="M343.853,94.7a53.577,53.577,0,0,0-8.892-19.515,71.1,71.1,0,0,1-9.2,5.9A7.945,7.945,0,0,1,324.475,89a54.364,54.364,0,0,1,19.378,5.7" transform="translate(-229.472 -53.172)" fill="#f85e60"/>
    <path id="Path_43569" data-name="Path 43569" d="M151.263,32.333V0a66.5,66.5,0,0,0-21.81,27.664,66.48,66.48,0,0,0,21.81,4.669" transform="translate(-91.551)" fill="#f85e60"/>
    <path id="Path_43570" data-name="Path 43570" d="M217.916,1.588V33.5a66.516,66.516,0,0,0,16.738-2.454,8.1,8.1,0,0,1,2.989-5.52A66.671,66.671,0,0,0,217.916,1.588" transform="translate(-154.113 -1.123)" fill="#f85e60"/>
    <path id="Path_43571" data-name="Path 43571" d="M256.545,23.477a8.228,8.228,0,0,1,1.407-.142,8.1,8.1,0,0,1,5.293,1.989,67.045,67.045,0,0,0,9.035-5.757A53.735,53.735,0,0,0,239.407,1.087a70.5,70.5,0,0,1,17.138,22.39" transform="translate(-169.311 -0.769)" fill="#f85e60"/>
    <path id="Path_43572" data-name="Path 43572" d="M217.916,124.178a54.265,54.265,0,0,1,18.636-5.987,8.16,8.16,0,0,1-1.29-2.012,70.538,70.538,0,0,1-17.346,2.459Z" transform="translate(-154.113 -82.162)" fill="#f85e60"/>
    <path id="Path_43573" data-name="Path 43573" d="M217.916,296.673A66.716,66.716,0,0,0,238.1,271.811a67.686,67.686,0,0,0-20.179-3.432Z" transform="translate(-154.113 -189.801)" fill="#f85e60"/>
    <path id="Path_43574" data-name="Path 43574" d="M217.916,211.283v2.959a71.694,71.694,0,0,1,21.778,3.739,67.048,67.048,0,0,0,4.451-20.385,32.48,32.48,0,0,0-26.229,13.687" transform="translate(-154.113 -139.742)" fill="#f85e60"/>
    <path id="Path_43575" data-name="Path 43575" d="M282.983,77.073a8.223,8.223,0,0,0-1.407.142,8.193,8.193,0,0,0-6.693,7.219,7.77,7.77,0,0,0-.083.819,7.967,7.967,0,0,0,1.981,5.283,54.7,54.7,0,0,1,7.095-.478h.415c1.7.012,3.392.114,5.054.28a8.185,8.185,0,0,0-6.361-13.265" transform="translate(-194.342 -54.507)" fill="#00707a"/>
    <path id="Path_43576" data-name="Path 43576" d="M8.181,162.83l-.064.007A8.18,8.18,0,0,0,8.181,179.2l.6-.061a8.153,8.153,0,0,0,7.372-6.342,8.42,8.42,0,0,0,.207-1.78,8.353,8.353,0,0,0-8.183-8.183" transform="translate(0 -115.155)" fill="#72809d"/>
    <path id="Path_43577" data-name="Path 43577" d="M101.632,257.384a8.689,8.689,0,0,0,1.756,5.013,8.2,8.2,0,0,0,3.292,2.541,54.248,54.248,0,0,1,2.807-15.706,8.179,8.179,0,0,0-7.855,8.152" transform="translate(-71.875 -176.26)" fill="#00707a"/>
    <path id="Path_43578" data-name="Path 43578" d="M249.053,237.8l-27.5-27.5a52.953,52.953,0,0,0-43.376-82.837h-.4a53.007,53.007,0,0,0-.386,106.013l.4,0a52.743,52.743,0,0,0,27.776-7.872l27.528,27.517-1.561-1.562L247.3,236.039Zm-70.562-23.062h-.268a34.259,34.259,0,0,1,.254-68.517h.259a34.259,34.259,0,0,1-.244,68.517" transform="translate(-88.243 -90.142)" fill="#00707a"/>
    <path id="Path_43579" data-name="Path 43579" d="M504.632,525.961l3.759,3.81a5.988,5.988,0,0,0,4.391,1.7c2.862,0,6.133-1.542,8.753-4.126,4.418-4.356,5.569-10.112,2.621-13.1l-5.017-5.087-.014.011.06.057.009-.005,2.424,2.459L505.865,527.2Z" transform="translate(-356.881 -360.078)" fill="#f85e60"/>
    <path id="Path_43580" data-name="Path 43580" d="M501.49,563.413l-1.191-1.189v0Z" transform="translate(-353.817 -397.611)" fill="#82bfab"/>
    <path id="Path_43581" data-name="Path 43581" d="M508.352,501.488l-1.434-1.431-1.758-1.758L489.4,513.82l1.561,1.562,1.63,1.634,1.191,1.189.078.081,1.233,1.234L510.846,504l-2.424-2.459-.009.006Z" transform="translate(-346.108 -352.402)" fill="#00707a"/>
  </g>
</svg>
