<svg id="_7538698_building_commercial_company_office_skyscraper_icon" data-name="7538698_building_commercial_company_office_skyscraper_icon" xmlns="http://www.w3.org/2000/svg" width="25.423" height="24.728" viewBox="0 0 25.423 24.728">
  <g id="Group_172873" data-name="Group 172873" transform="translate(21.84 19.746)">
    <g id="Group_172871" data-name="Group 172871" transform="translate(0.969 2.165)">
      <path id="Path_38188" data-name="Path 38188" d="M58.7,59.847a.292.292,0,0,1-.29-.29V57.32a.29.29,0,0,1,.58,0v2.237A.292.292,0,0,1,58.7,59.847Z" transform="translate(-58.41 -57.03)" fill="#72809d"/>
    </g>
    <g id="Group_172872" data-name="Group 172872">
      <path id="Path_38189" data-name="Path 38189" d="M58.489,53.67a1.259,1.259,0,0,1-2.519,0c0-.7.564-2.09,1.259-2.09S58.489,52.971,58.489,53.67Z" transform="translate(-55.97 -51.58)" fill="#72809d"/>
    </g>
  </g>
  <g id="Group_172876" data-name="Group 172876" transform="translate(1.069 19.746)">
    <g id="Group_172874" data-name="Group 172874" transform="translate(0.969 2.165)">
      <path id="Path_38190" data-name="Path 38190" d="M6.42,59.847a.292.292,0,0,1-.29-.29V57.32a.29.29,0,0,1,.58,0v2.237A.287.287,0,0,1,6.42,59.847Z" transform="translate(-6.13 -57.03)" fill="#72809d"/>
    </g>
    <g id="Group_172875" data-name="Group 172875">
      <path id="Path_38191" data-name="Path 38191" d="M6.209,53.67a1.259,1.259,0,0,1-2.519,0c0-.7.564-2.09,1.259-2.09S6.209,52.971,6.209,53.67Z" transform="translate(-3.69 -51.58)" fill="#72809d"/>
    </g>
  </g>
  <g id="Group_172877" data-name="Group 172877" transform="translate(0 24.148)">
    <path id="Path_38192" data-name="Path 38192" d="M26.137,63.24H1.29a.29.29,0,0,1,0-.58H26.133a.292.292,0,0,1,.29.29A.288.288,0,0,1,26.137,63.24Z" transform="translate(-1 -62.66)" fill="#f85e60"/>
  </g>
  <g id="Group_172878" data-name="Group 172878" transform="translate(5.399 8.673)">
    <rect id="Rectangle_5399" data-name="Rectangle 5399" width="0.811" height="15.765" fill="#d4effc"/>
  </g>
  <g id="Group_172879" data-name="Group 172879" transform="translate(19.218 8.673)">
    <rect id="Rectangle_5400" data-name="Rectangle 5400" width="0.811" height="15.765" fill="#d4effc"/>
  </g>
  <g id="Group_172880" data-name="Group 172880" transform="translate(5.109 8.379)">
    <path id="Path_38193" data-name="Path 38193" d="M28.779,39.319H14.15a.292.292,0,0,1-.29-.29V23.26a.292.292,0,0,1,.29-.29H28.779a.292.292,0,0,1,.29.29V39.025A.293.293,0,0,1,28.779,39.319Zm-14.339-.58H28.485V23.554H14.44Z" transform="translate(-13.86 -22.97)" fill="#f85e60"/>
  </g>
  <g id="Group_172881" data-name="Group 172881" transform="translate(4.227 6.981)">
    <rect id="Rectangle_5401" data-name="Rectangle 5401" width="1.172" height="1.693" fill="#d4effc"/>
  </g>
  <g id="Group_172882" data-name="Group 172882" transform="translate(20.028 6.981)">
    <rect id="Rectangle_5402" data-name="Rectangle 5402" width="1.172" height="1.693" fill="#d4effc"/>
  </g>
  <g id="Group_172883" data-name="Group 172883" transform="translate(7.175 1.784)">
    <rect id="Rectangle_5403" data-name="Rectangle 5403" width="0.791" height="5.193" transform="translate(0 0)" fill="#d4effc"/>
  </g>
  <g id="Group_172884" data-name="Group 172884" transform="translate(17.462 1.784)">
    <rect id="Rectangle_5404" data-name="Rectangle 5404" width="0.791" height="5.193" transform="translate(0 0)" fill="#d4effc"/>
  </g>
  <g id="Group_172885" data-name="Group 172885" transform="translate(6.21 0.29)">
    <rect id="Rectangle_5405" data-name="Rectangle 5405" width="0.822" height="1.494" transform="translate(0 0)" fill="#d4effc"/>
  </g>
  <g id="Group_172886" data-name="Group 172886" transform="translate(18.391 0.29)">
    <rect id="Rectangle_5406" data-name="Rectangle 5406" width="0.822" height="1.494" transform="translate(0 0)" fill="#d4effc"/>
  </g>
  <g id="Group_172887" data-name="Group 172887" transform="translate(3.937 6.695)">
    <path id="Path_38194" data-name="Path 38194" d="M28.173,21H11.2a.292.292,0,0,1-.29-.29V19.02a.292.292,0,0,1,.29-.29H28.169a.292.292,0,0,1,.29.29v1.689A.286.286,0,0,1,28.173,21Zm-16.679-.584H27.883V19.306H11.494Z" transform="translate(-10.91 -18.73)" fill="#f85e60"/>
  </g>
  <g id="Group_172888" data-name="Group 172888" transform="translate(6.885 1.494)">
    <path id="Path_38195" data-name="Path 38195" d="M29.7,11.417H18.62a.292.292,0,0,1-.29-.29V5.93a.292.292,0,0,1,.29-.29H29.7a.292.292,0,0,1,.29.29v5.2A.29.29,0,0,1,29.7,11.417Zm-10.787-.58h10.5V6.224H18.91Z" transform="translate(-18.33 -5.64)" fill="#f85e60"/>
  </g>
  <g id="Group_172889" data-name="Group 172889" transform="translate(5.924)">
    <path id="Path_38196" data-name="Path 38196" d="M29.2,3.958h-13a.292.292,0,0,1-.29-.29V2.17a.292.292,0,0,1,.29-.29h13a.292.292,0,0,1,.29.29V3.664A.293.293,0,0,1,29.2,3.958ZM16.49,3.374H28.91V2.46H16.49Z" transform="translate(-15.91 -1.88)" fill="#f85e60"/>
  </g>
  <g id="Group_172894" data-name="Group 172894" transform="translate(7.052 9.841)">
    <g id="Group_172890" data-name="Group 172890" transform="translate(3.063)">
      <rect id="Rectangle_5407" data-name="Rectangle 5407" width="2.13" height="2.213" fill="#72809d"/>
    </g>
    <g id="Group_172891" data-name="Group 172891" transform="translate(6.126)">
      <rect id="Rectangle_5408" data-name="Rectangle 5408" width="2.13" height="2.213" fill="#72809d"/>
    </g>
    <g id="Group_172892" data-name="Group 172892">
      <rect id="Rectangle_5409" data-name="Rectangle 5409" width="2.13" height="2.213" fill="#72809d"/>
    </g>
    <g id="Group_172893" data-name="Group 172893" transform="translate(9.19)">
      <rect id="Rectangle_5410" data-name="Rectangle 5410" width="2.13" height="2.213" fill="#72809d"/>
    </g>
  </g>
  <g id="Group_172899" data-name="Group 172899" transform="translate(7.052 12.952)">
    <g id="Group_172895" data-name="Group 172895" transform="translate(3.063 0)">
      <rect id="Rectangle_5411" data-name="Rectangle 5411" width="2.13" height="2.213" fill="#72809d"/>
    </g>
    <g id="Group_172896" data-name="Group 172896" transform="translate(6.126 0)">
      <rect id="Rectangle_5412" data-name="Rectangle 5412" width="2.13" height="2.213" fill="#72809d"/>
    </g>
    <g id="Group_172897" data-name="Group 172897" transform="translate(0 0)">
      <rect id="Rectangle_5413" data-name="Rectangle 5413" width="2.13" height="2.213" fill="#72809d"/>
    </g>
    <g id="Group_172898" data-name="Group 172898" transform="translate(9.19 0)">
      <rect id="Rectangle_5414" data-name="Rectangle 5414" width="2.13" height="2.213" fill="#72809d"/>
    </g>
  </g>
  <g id="Group_172904" data-name="Group 172904" transform="translate(7.052 16.063)">
    <g id="Group_172900" data-name="Group 172900" transform="translate(3.063)">
      <rect id="Rectangle_5415" data-name="Rectangle 5415" width="2.13" height="2.213" fill="#72809d"/>
    </g>
    <g id="Group_172901" data-name="Group 172901" transform="translate(6.126)">
      <rect id="Rectangle_5416" data-name="Rectangle 5416" width="2.13" height="2.213" fill="#72809d"/>
    </g>
    <g id="Group_172902" data-name="Group 172902">
      <rect id="Rectangle_5417" data-name="Rectangle 5417" width="2.13" height="2.213" fill="#72809d"/>
    </g>
    <g id="Group_172903" data-name="Group 172903" transform="translate(9.19)">
      <rect id="Rectangle_5418" data-name="Rectangle 5418" width="2.13" height="2.213" fill="#72809d"/>
    </g>
  </g>
  <g id="Group_172909" data-name="Group 172909" transform="translate(8.538 2.67)">
    <g id="Group_172905" data-name="Group 172905">
      <rect id="Rectangle_5419" data-name="Rectangle 5419" width="1.454" height="3.425" fill="#72809d"/>
    </g>
    <g id="Group_172906" data-name="Group 172906" transform="translate(2.3)">
      <rect id="Rectangle_5420" data-name="Rectangle 5420" width="1.454" height="3.425" fill="#72809d"/>
    </g>
    <g id="Group_172907" data-name="Group 172907" transform="translate(4.601)">
      <rect id="Rectangle_5421" data-name="Rectangle 5421" width="1.454" height="3.425" fill="#72809d"/>
    </g>
    <g id="Group_172908" data-name="Group 172908" transform="translate(6.897)">
      <rect id="Rectangle_5422" data-name="Rectangle 5422" width="1.454" height="3.425" fill="#72809d"/>
    </g>
  </g>
  <g id="Group_172910" data-name="Group 172910" transform="translate(9.519 19.73)">
    <path id="Path_38197" data-name="Path 38197" d="M31.059,56.538H25.25a.292.292,0,0,1-.29-.29V51.83a.292.292,0,0,1,.29-.29h5.8a.292.292,0,0,1,.29.29v4.418A.286.286,0,0,1,31.059,56.538Zm-5.515-.58h5.225V52.12H25.544Z" transform="translate(-24.96 -51.54)" fill="#f85e60"/>
  </g>
  <g id="Group_172911" data-name="Group 172911" transform="translate(8.435 19.73)">
    <path id="Path_38198" data-name="Path 38198" d="M30.5,52.12H22.52a.29.29,0,1,1,0-.58H30.5a.29.29,0,1,1,0,.58Z" transform="translate(-22.23 -51.54)" fill="#f85e60"/>
  </g>
  <g id="Group_172912" data-name="Group 172912" transform="translate(12.424 19.73)">
    <path id="Path_38199" data-name="Path 38199" d="M32.56,56.538a.292.292,0,0,1-.29-.29V51.83a.29.29,0,0,1,.58,0v4.418A.292.292,0,0,1,32.56,56.538Z" transform="translate(-32.27 -51.54)" fill="#f85e60"/>
  </g>
</svg>
