<svg id="user_3_" data-name="user (3)" xmlns="http://www.w3.org/2000/svg" width="18.997" height="22.77" viewBox="0 0 18.997 22.77">
  <path id="Path_62" data-name="Path 62" d="M92.516,10.969a5.307,5.307,0,0,0,3.878-1.607A5.307,5.307,0,0,0,98,5.484a5.307,5.307,0,0,0-1.607-3.878,5.483,5.483,0,0,0-7.755,0,5.307,5.307,0,0,0-1.607,3.877,5.307,5.307,0,0,0,1.607,3.878A5.308,5.308,0,0,0,92.516,10.969ZM89.582,2.55a4.149,4.149,0,0,1,5.868,0,3.965,3.965,0,0,1,1.216,2.934A3.965,3.965,0,0,1,95.45,8.418a4.148,4.148,0,0,1-5.868,0,3.964,3.964,0,0,1-1.216-2.934A3.964,3.964,0,0,1,89.582,2.55Zm0,0" transform="translate(-83.161 0)" fill="#72809d"/>
  <path id="Path_63" data-name="Path 63" d="M18.951,253.827a13.543,13.543,0,0,0-.184-1.439,11.335,11.335,0,0,0-.354-1.447,7.146,7.146,0,0,0-.595-1.349,5.084,5.084,0,0,0-.9-1.169,3.953,3.953,0,0,0-1.288-.809,4.453,4.453,0,0,0-1.644-.3,1.669,1.669,0,0,0-.891.378c-.267.174-.58.376-.929.6a5.321,5.321,0,0,1-1.2.529,4.665,4.665,0,0,1-2.939,0,5.306,5.306,0,0,1-1.2-.529c-.346-.221-.658-.422-.929-.6a1.667,1.667,0,0,0-.891-.378,4.447,4.447,0,0,0-1.644.3,3.951,3.951,0,0,0-1.288.809,5.087,5.087,0,0,0-.9,1.168,7.159,7.159,0,0,0-.595,1.349,11.361,11.361,0,0,0-.354,1.446,13.455,13.455,0,0,0-.184,1.439c-.03.435-.046.887-.046,1.345a3.781,3.781,0,0,0,1.123,2.86,4.042,4.042,0,0,0,2.894,1.055H14.98a4.042,4.042,0,0,0,2.893-1.055A3.779,3.779,0,0,0,19,255.171c0-.459-.016-.911-.046-1.345Zm-2,3.239a2.721,2.721,0,0,1-1.974.688H4.016a2.722,2.722,0,0,1-1.974-.688,2.469,2.469,0,0,1-.709-1.894c0-.427.014-.848.042-1.252a12.135,12.135,0,0,1,.167-1.3,10.024,10.024,0,0,1,.311-1.275,5.829,5.829,0,0,1,.484-1.1A3.769,3.769,0,0,1,3,249.388a2.621,2.621,0,0,1,.857-.533,3.069,3.069,0,0,1,1.051-.2c.047.025.13.072.265.16.274.179.59.383.94.606a6.614,6.614,0,0,0,1.508.674,6,6,0,0,0,3.76,0,6.621,6.621,0,0,0,1.509-.674c.358-.229.665-.427.939-.606.135-.088.218-.135.265-.16a3.071,3.071,0,0,1,1.051.2,2.626,2.626,0,0,1,.857.533,3.758,3.758,0,0,1,.659.864,5.81,5.81,0,0,1,.484,1.1,10,10,0,0,1,.311,1.275,12.237,12.237,0,0,1,.167,1.3h0c.028.4.043.824.043,1.252a2.469,2.469,0,0,1-.709,1.894Zm0,0" transform="translate(0 -236.318)" fill="#72809d"/>
</svg>
