<svg id="Web" xmlns="http://www.w3.org/2000/svg" width="22.521" height="22.521" viewBox="0 0 22.521 22.521">
  <path id="Path_4" data-name="Path 4" d="M3.378,3.378A10.223,10.223,0,0,1,11.261,0a10.223,10.223,0,0,1,7.882,3.378,10.223,10.223,0,0,1,3.378,7.882,10.223,10.223,0,0,1-3.378,7.882,10.223,10.223,0,0,1-7.882,3.378,10.223,10.223,0,0,1-7.882-3.378A11.238,11.238,0,0,1,0,11.261,10.223,10.223,0,0,1,3.378,3.378Zm9.384,16.891q1.126,0,2.815-1.689a8.2,8.2,0,0,0,1.314-3.941,3.108,3.108,0,0,0-.938-2.252,3.3,3.3,0,0,0-2.44-1.126H11.636a5.48,5.48,0,0,1-1.689-.375,1.7,1.7,0,0,1-.563-1.314.975.975,0,0,1,.375-.751,1.423,1.423,0,0,1,.751-.375,1.281,1.281,0,0,1,.938.563c.375.188.563.375.751.375A1.128,1.128,0,0,0,12.95,9.2a1.128,1.128,0,0,0,.188-.751A2.987,2.987,0,0,0,12.2,6.569,7.763,7.763,0,0,0,13.137,3a.4.4,0,0,0-.375-.375,5.8,5.8,0,0,0-1.5-.375,9.388,9.388,0,0,0-4.88,1.5A4.725,4.725,0,0,0,4.692,7.507a4.805,4.805,0,0,0,1.5,3.566,5.127,5.127,0,0,0,3.566,1.5h0v.751A2.41,2.41,0,0,0,10.51,15.2,2.733,2.733,0,0,0,12.2,16.328v3.378c0,.188,0,.188.188.375S12.574,20.269,12.762,20.269Z" transform="translate(0 0)" fill="#f85e60"/>
</svg>
